<?xml version="1.0" encoding="utf-8"?>
<!-- Generator: Adobe Illustrator 16.0.0, SVG Export Plug-In . SVG Version: 6.00 Build 0)  -->
<!DOCTYPE svg PUBLIC "-//W3C//DTD SVG 1.1//EN" "http://www.w3.org/Graphics/SVG/1.1/DTD/svg11.dtd">
<svg version="1.1" id="Layer_1" xmlns="http://www.w3.org/2000/svg" xmlns:xlink="http://www.w3.org/1999/xlink" x="0px" y="0px"
	 width="503.578px" height="406.049px" viewBox="58.578 47.232 503.578 406.049"
	 enable-background="new 58.578 47.232 503.578 406.049" xml:space="preserve">
<g transform="translate(-730.926 -190.442)">
	<g transform="translate(1077.334 254.687)">
		<path fill="#3F3D56" d="M86.588,357.19l4.004,1.253l26.859-85.836c-2.279-0.58-4.617,0.723-5.323,2.968L86.588,357.19z"/>
		<path fill="#2F2E41" d="M174.871,245.222h-17.709v-52.051h17.709c7.054,0.008,12.771,5.725,12.778,12.778v26.494
			C187.642,239.497,181.925,245.214,174.871,245.222z"/>
		<path fill="#3F3D56" d="M172.406,217.338c-1.23-0.002-2.229-0.999-2.23-2.231v-19.333h4.462v19.333
			C174.635,216.34,173.638,217.337,172.406,217.338z"/>
		<path fill="#3F3D56" d="M177.769,241.131h-12.957c-1.554-0.001-2.814-1.261-2.815-2.815v-7.752
			c0.001-1.555,1.262-2.815,2.815-2.816h12.957c1.555,0.002,2.815,1.262,2.817,2.816v7.752
			C180.585,239.87,179.324,241.131,177.769,241.131z"/>
		<path fill="#2F2E41" d="M139.99,187.755c-0.305,0-0.6-0.104-0.835-0.298c-0.296-0.24-0.478-0.594-0.5-0.974
			c-0.419-6.671,0.74-13.346,3.382-19.484c1.79-4.146,3.849-6.818,6.48-8.404c3.509-2.12,8.323-2.29,13.214-0.466
			c2.407,0.776,4.544,2.222,6.158,4.167c1.803,2.35,2.367,5.364,2.71,8.272c0.517,4.399,0.638,8.836,0.363,13.257
			c-0.025,0.466-0.299,0.882-0.718,1.088c-0.449,0.222-0.983,0.188-1.402-0.088c-0.083-0.055-0.168-0.104-0.256-0.15
			c-0.904-0.453-1.972-0.439-2.862,0.037c-0.322,0.19-0.627,0.409-0.913,0.654l-1.757,1.423c-0.443,0.353-1.06,0.391-1.545,0.097
			c-1.273-0.724-2.699-1.145-4.162-1.229c-1.942-0.073-3.888,0.068-5.8,0.421l-11.36,1.661c-0.066,0.01-0.133,0.015-0.199,0.015
			H139.99z"/>
		<path fill="#FFB6B6" d="M138.472,377.189h-6.063l-2.887-23.395h8.957L138.472,377.189z"/>
		<path fill="#2F2E41" d="M141.737,388.705h-4.3l-0.77-4.063l-1.967,4.063h-11.42c-1.418-0.003-2.565-1.154-2.563-2.573
			c0.003-0.84,0.415-1.626,1.105-2.105l9.12-6.295v-4.108l9.588,0.571L141.737,388.705z"/>
		<path fill="#FFB6B6" d="M208.276,371.999l-5.59,2.352l-11.725-20.448l8.25-3.47L208.276,371.999z"/>
		<path fill="#2F2E41" d="M215.748,381.351l-3.969,1.67l-2.283-3.448l-0.238,4.508l-10.523,4.427
			c-1.307,0.547-2.812-0.068-3.36-1.378c-0.323-0.774-0.248-1.659,0.202-2.368l5.963-9.337l-1.594-3.788l9.062-3.187
			L215.748,381.351z"/>
		<path fill="#FFB6B6" d="M135.638,217.854l-1.737,23.288l-11.528,34.774l-4.629-2.691l6.281-35.366l2.132-20.403L135.638,217.854z"
			/>
		<circle fill="#FFB6B6" cx="119.684" cy="276.135" r="4.851"/>
		<path fill="#2F2E41" d="M165.219,244.673v6.423c0,0,9.944,17.521,5.894,25.039l14.926,40.83c0,0,20.242,20.243,18.506,34.702
			l1.157,4.626l-13.299,5.783l-2.891-4.048l-22.557-38.749l-19.091-35.275l-3.468,41.642c0,0,2.312,32.387-4.05,35.859l-0.576,5.198
			h-13.5v-4.947c0,0-5.007-17.607-2.115-30.909L123,274.746c0,0,5.204-23.712,11.567-27.761l2.313-5.783L165.219,244.673z"/>
		<path fill="#E4E4E4" d="M175.842,200.151l-12.607-5.904l-3.639-6.341l-12.237,0.694l-3.701,6.043l-10.893,2.206l1.603,39.366
			c-0.714,1.233-0.968,2.68-0.719,4.084c0.384,2.467,2.323,0.526,0.384,2.467s-3.403,0.965-2.43,2.666
			c0.974,1.7-1.421,4.352-1.421,4.352s30.979,15.781,39.732-4.352c0,0,1.726-5.888-1.19-18.226
			C165.807,214.87,175.842,200.151,175.842,200.151z"/>
		<path fill="#E4E4E4" d="M136.344,199.357l-3.58-2.505c0,0-4.948,2.034-5.117,6.143c-0.167,4.108-3.011,16.418-3.011,16.418
			l11.302,6.075L136.344,199.357z"/>
		<path fill="#FFB6B6" d="M178.819,219.795l-1.737,23.287l-19.292,28.953l-4.629-2.691l14.044-29.545l2.133-20.402L178.819,219.795z
			"/>
		<path fill="#E4E4E4" d="M169.944,201.465l5.897-1.315c0,0,3.553,1.135,4.038,6.471c0.485,5.337,0.893,14.626,0.893,14.626
			l-12.376,9.101l-3.07-13.052L169.944,201.465z"/>
		<circle fill="#FFB6B6" cx="154.617" cy="272.254" r="4.851"/>
		<circle fill="#FFB7B7" cx="152.372" cy="174.522" r="11.304"/>
		<path fill="#2F2E41" d="M143.163,172.818L143.163,172.818c-1.438,0-2.88-0.001-4.324-0.005c-0.348-0.001-0.681-0.143-0.923-0.394
			c-0.238-0.243-0.366-0.574-0.354-0.915c0.217-4.862,2.801-9.311,6.917-11.909l0,0c6.808-4.151,15.691-1.998,19.844,4.81
			c1.242,2.038,1.961,4.351,2.089,6.734c0.04,0.7-0.496,1.302-1.198,1.342c-0.006,0-0.013,0-0.02,0.001
			c-5.002,0.211-10.552,0.314-17.993,0.333l0,0c-0.519,0.001-0.986-0.313-1.18-0.792l-0.121-0.293
			c-0.164-0.403-0.624-0.597-1.027-0.431c-0.233,0.095-0.408,0.298-0.467,0.544c-0.139,0.572-0.65,0.976-1.24,0.974L143.163,172.818
			z"/>
		<path fill="#3F3D56" d="M168.468,229.83c-3.037-2.859-4.345-7.008-4.365-11.104c-0.023-4.68,1.671-9.12,3.86-13.193
			c1.328-2.461,2.832-4.815,4.344-7.163c0.509-0.79-0.75-1.522-1.257-0.734c-5.109,7.946-10.736,17.36-7.437,27.128
			c0.756,2.315,2.072,4.408,3.829,6.094c0.683,0.643,1.713-0.386,1.028-1.028L168.468,229.83z"/>
		<path fill="#F37225" d="M86.666,316.684c-2.504-0.79-5.181-0.858-7.719-0.194c-0.006,0-0.013,0-0.018,0.004
			c-1.968,0.512-3.803,1.442-5.38,2.728c-0.088,0.072-0.177,0.147-0.265,0.223c-1.997,1.713-3.472,3.953-4.255,6.464l-10.803,34.515
			c-0.803,2.555-0.859,5.286-0.158,7.871l0.127,0.436c0.524,1.713,1.368,3.311,2.487,4.71c0.007,0.007,0.012,0.015,0.018,0.025
			c1.747,2.167,4.099,3.767,6.756,4.595l20.37,6.375l19.208-61.379L86.666,316.684z"/>
		<path fill="#3F3D56" d="M118.786,273.026l-26.235,83.836c-0.321,1.111,0.318,2.275,1.432,2.598
			c1.077,0.313,2.212-0.278,2.571-1.343l24.916-79.615C122.17,276.252,120.993,273.849,118.786,273.026z"/>
		<circle fill="#3F3D56" cx="86.066" cy="385.28" r="3.756"/>
		<circle fill="#3F3D56" cx="61.603" cy="377.625" r="3.756"/>
		<path fill="#3F3D56" d="M78.947,316.489c-3.892,12.196-14.078,44.09-18.246,56.978c-0.006-0.009-0.011-0.019-0.018-0.025
			c-1.119-1.399-1.963-2.996-2.487-4.71l-0.127-0.435c4.465-14.005,11.944-37.624,15.214-48.854c0.088-0.075,0.178-0.15,0.266-0.225
			c1.576-1.285,3.411-2.215,5.379-2.726C78.938,316.491,78.938,316.491,78.947,316.489z"/>
	</g>
	<g transform="translate(1137.333 433.087) rotate(161)">
		<g transform="translate(1.274 17.007)">
			<path fill="#E0E0E0" d="M-9.161-27.887C11.69-16.642,32.41-22.978,32.41-22.978C17.584-36.466-9.161-27.887-9.161-27.887z"/>
		</g>
		<g transform="translate(70.448 13.294)">
			<path fill="#E0E0E0" d="M-12.394-3.8c4.103-13.949-2.431-26.35-2.431-26.35C-21.071-19.77-12.394-3.8-12.394-3.8z"/>
		</g>
		<g transform="translate(37.473 0.584)">
			<path fill="#E0E0E0" d="M18.282-24.002C2.787-32.054-13.308-27.3-13.308-27.3C-2.507-17.569,18.282-24.002,18.282-24.002z"/>
		</g>
		<g transform="translate(36.415 0)">
			<path fill="#E0E0E0" d="M-13.187,6.575c0.202,0.252,10.238-7.421,22.414-17.14c12.176-9.717,21.889-17.803,21.687-18.057
				c-0.202-0.253-10.237,7.418-22.416,17.14C-3.681-1.76-13.386,6.32-13.187,6.575z"/>
		</g>
		<g transform="translate(0 35.069)">
			<path fill="#E0E0E0" d="M-9.016-9.157c0,0,26.984-1.448,36.835-23.489C27.819-32.645,4.782-31.728-9.016-9.157z"/>
		</g>
		<g transform="translate(42.208 24.686)">
			<g transform="translate(0 0)">
				<g transform="translate(0 0)">
					<g transform="translate(0 0)">
						<g transform="translate(0 0)">
							<path fill="#E0E0E0" d="M-13.633,9.363c0,0,20.801-17.249,15.575-40.819C1.943-31.456-16.01-16.985-13.633,9.363z"/>
						</g>
					</g>
				</g>
			</g>
		</g>
	</g>
	<g transform="matrix(0.985, -0.174, 0.174, 0.985, 626.102, 167.681)">
		<g transform="translate(65.521 267.336)">
			<g transform="translate(0 0)">
				<path fill="#E0E0E0" d="M58.24,42.077c17.836-9.619,35.561-4.201,35.561-4.201C81.119,49.417,58.24,42.077,58.24,42.077z"/>
			</g>
		</g>
		<g transform="translate(124.695 254.113)">
			<path fill="#E0E0E0" d="M55.473,37.871c3.51,11.931-2.079,22.541-2.079,22.541C48.051,51.533,55.473,37.871,55.473,37.871z"/>
		</g>
		<g transform="translate(96.487 283.897)">
			<path fill="#E0E0E0" d="M81.717,36.244c-13.256,6.887-27.024,2.818-27.024,2.818C63.932,30.739,81.717,36.244,81.717,36.244z"/>
		</g>
		<g transform="translate(95.583 256.928)">
			<g transform="translate(0 0)">
				<path fill="#E0E0E0" d="M54.798,37.554c0.176-0.218,8.758,6.348,19.174,14.661c10.415,8.313,18.722,15.229,18.55,15.448
					c-0.173,0.217-8.757-6.348-19.176-14.663C62.926,44.683,54.624,37.772,54.798,37.554z"/>
			</g>
		</g>
		<g transform="translate(64.431 238.251)">
			<path fill="#E0E0E0" d="M58.365,39.688c0,0,23.083,1.24,31.513,20.093C76.788,58.441,65.103,50.99,58.365,39.688z"/>
		</g>
		<g transform="translate(100.538 230.39)">
			<path fill="#E0E0E0" d="M54.414,40.589c0,0,17.797,14.753,13.323,34.918C58.027,66.627,53.087,53.679,54.414,40.589z"/>
		</g>
	</g>
	<g transform="translate(689.375 165.889)">
		<path fill="#9DAED8" d="M412.72,226.133c-0.025,69.635-56.497,126.064-126.132,126.039
			c-69.635-0.026-126.065-56.497-126.039-126.132c0.026-69.634,56.497-126.064,126.132-126.039
			c46.495,0.017,89.206,25.62,111.134,66.618c2.67,4.968,4.999,10.111,6.973,15.395c0.273,0.736,0.538,1.472,0.795,2.214v0.007
			c1.158,3.266,2.177,6.591,3.056,9.978c2.717,10.422,4.089,21.149,4.08,31.918L412.72,226.133z"/>
		<path fill="#FFFFFF" d="M272.789,141.032c-11.487-6.212-25.2-6.773-37.156-1.52c-5.195,2.26-10.664,6.315-12.396,13.636
			c7.008-4.136,16.082,2.398,17.886,12.882l-0.42,0.117c-0.953,7.26,1.173,15.167,5.29,19.67c0.541-4.677,3.617-7.86,6.641-9.849
			c3.025-1.988,6.375-3.433,8.678-6.85c2.737-4.052,3.432-9.974,4.516-15.376C266.909,148.341,268.984,142.537,272.789,141.032z"/>
		<path fill="#F5F7FD" d="M233.557,202.826c-1.941,2.915-4.533,4.744-6.86,7.021c-2.686,2.443-4.448,5.737-4.99,9.326
			c-0.294,2.537,0.162,5.115,0.098,7.681c-0.063,2.565-0.918,5.451-2.662,6.089c-2.753,0.995-4.855-4.121-7.688-4.478
			c-2.249-0.281-4.275,3.258-3.623,6.327s3.714,4.427,5.473,2.425c1.594,2.669,0.469,7.512-1.92,8.332
			c-0.252,1.683-0.504,3.357-0.75,5.038c-6.041-4.225-12.144-8.521-17.28-14.707c-5.712-6.824-9.256-15.198-10.175-24.05
			c-0.666-7.112,0.323-15.248-2.943-20.719c-2.614-4.38-7.099-5.347-11.134-5.074c-0.736,0.049-1.479,0.133-2.214,0.224
			c2.38-7.149,5.403-14.068,9.032-20.671c0.821-0.353,1.584-0.828,2.263-1.409c3.756-3.188,5.423-9.642,8.472-14.106
			c0.196-0.288,0.399-0.567,0.61-0.841c3.118-4.073,7.294-6.166,11.333-8.114c8.934-4.338,18.127-8.731,27.56-8.128l-2.684,0.26
			c-3.134,8.774-6.269,17.547-9.407,26.318c-0.477,1.345-0.958,2.693-1.443,4.043c-1.78,4.989-3.617,10.301-3.343,15.886
			c0.162,3.307,1.311,6.838,3.497,7.974c2.036,1.051,4.268-0.238,6.236-1.513c0.834-0.531,1.661-1.063,2.494-1.604
			c2.992-1.927,6.307-3.903,9.467-2.614c2.894,1.178,5.031,5.108,5.438,9.348C236.788,195.209,235.783,199.338,233.557,202.826z"/>
		<path fill="#F5F7FD" d="M251.353,262.723l-26.217-16.146l0.148-0.381c-5.433,2.069-7.689,11.728-6.792,19.626
			c0.898,7.897,3.943,14.957,5.481,22.654c2.074,10.531,1.292,21.426-2.267,31.553c11.491-12.893,21.661-26.907,30.355-41.829
			c1.215-1.881,2.14-3.933,2.745-6.088c0.556-2.293,0.47-5.047-0.642-6.889C253.45,264.168,252.484,263.31,251.353,262.723z"/>
		<path fill="#FFFFFF" d="M216.864,164.834c-1.026,2.204-1.184,4.712-0.442,7.026c0.859,2.205,2.679,3.201,4.352,4.031l4.828,2.39
			c1.606,0.797,3.338,1.601,4.975,0.946c1.976-0.79,3.345-3.887,2.99-6.761c-0.377-3.059-2.302-5.163-4.089-6.955l-7.486-7.526
			l-1.406,1.722c-1.521,1.483-2.778,3.215-3.719,5.119L216.864,164.834z"/>
		<path fill="#F5F7FD" d="M386.836,197.535l6.516,1.535c-0.377,7.337-4.015,14.127-8.893,16.586
			c-2.035,1.023-4.295,1.402-5.976,3.314c-1.521,1.737-2.293,4.442-3,7.028l-3.72,13.539c-1.328,4.863-3.04,10.266-6.502,12.018
			c-2.971,1.505-6.369-0.336-8.653-3.427c-2.285-3.089-3.68-7.245-5.032-11.295c0.084,4.415-1.969,8.746-4.876,10.28
			c-2.908,1.534-6.464,0.147-8.412-3.276c-1.402-2.46-1.983-5.704-3.357-8.198c-1.373-2.494-4.25-3.924-5.754-1.584
			c-0.989,1.556-0.862,3.939-1.354,5.914c-0.763,3.069-3.075,4.997-5.367,5.165c-2.292,0.168-4.515-1.151-6.426-2.936
			c-3.945-3.7-6.852-9.572-7.981-16.095c-0.608-2.912-0.531-5.924,0.225-8.801c0.861-2.725,2.943-4.828,5.009-4.309
			c1.359-2.874-1.328-6.685-3.742-6.349c-2.414,0.336-4.323,2.936-6.313,4.933c-1.989,1.997-4.758,3.448-6.755,1.465
			c0.09,1.513-1.063,2.813-2.577,2.903c-0.069,0.004-0.137,0.005-0.205,0.004c-1.29-0.147-2.439-1.184-3.623-1.92
			c-4.576-2.851-10.385-0.959-13.636,4.437c2.037-8.648,5.011-18.57,11.253-20.602c2.551-0.833,5.333-0.146,7.743-1.593
			c4.268-2.558,5.129-12.219,1.443-16.204c0.47,3.771,0.378,8.17-1.611,10.749c-1.99,2.579-6.166,0.897-5.914-2.915
			c-0.574,2.627-3.434,3.027-4.75,1.01c-1.318-2.019-1.212-5.319-0.274-7.729c0.968-2.183,2.357-4.155,4.085-5.802
			c3.329-3.566,6.707-7.172,10.56-9.419c3.853-2.246,8.317-2.998,12.186-0.77c2.036,1.177,3.833,3.139,5.914,4.176
			c2.081,1.038,4.722,0.912,6.103-1.527c1.549-2.719,0.82-6.755,1.395-10.154c1.03-6.005,7.034-8.815,10.359-4.849
			c-2.487-0.638-5.06,2.302-5.367,5.872s1.485,7.172,3.896,8.248c4.049,1.794,8.016-2.719,11.077-6.895
			c3.196-4.373,6.396-8.743,9.601-13.11c0.512-0.744,1.086-1.442,1.717-2.088c2.082-2.03,5.384-2.098,7.548-0.155
			c3.235,2.642,4.757,8.058,7.413,11.787c3.854,5.416,9.62,6.733,14.988,7.784c4,0.778,8.003,1.561,12.011,2.348
			c2.67,4.967,4.999,10.11,6.973,15.394C398.004,184.894,391.747,190.282,386.836,197.535z"/>
		<path fill="#FFFFFF" d="M399.771,281.847c-3.003,6.096-6.494,11.938-10.442,17.469c-2.521-1.08-5.234,0.848-7.595,2.656
			c-2.468,1.892-5.431,3.734-7.961,2.01c-2.586-1.766-3.42-6.706-2.6-10.625s2.866-7.021,4.849-9.977
			c2.103-3.139,4.353-6.399,7.272-7.616c2.923-1.216,6.693,0.505,7.548,4.667l2.075-0.069c-1.164-1.594-0.554-4.904,1.01-5.489
			c1.801-0.681,3.364,1.793,4.428,3.983C398.832,279.842,399.316,280.834,399.771,281.847z"/>
		<path fill="#F5F7FD" d="M320.331,252.248c-4.458,0.281-7.989-5.208-10.336-10.607c-2.347-5.399-4.488-11.573-8.51-14.321
			c-2.302-1.571-4.919-1.786-7.412-2.546c-2.869-0.725-5.212-2.789-6.294-5.542l-2.829-1.142c-3.734,2.1-7.518,4.238-10.737,7.656
			c-3.61,3.834-5.858,8.751-6.398,13.99c-0.541,5.661,1.455,11.974,5.182,14.1c2.945,1.683,6.375,0.62,9.358,2.159
			c3.728,1.922,5.94,7.505,6.778,13.017c0.838,5.511,0.625,11.244,1.224,16.814c0.6,5.57,2.251,11.377,5.668,14.232
			c4.277,3.575,10.554,0.605,12.473-5.902c0.941-3.193,0.909-6.794,1.614-10.108c1.24-5.836,4.585-10.165,7.24-14.951
			C320.005,264.308,322.096,257.804,320.331,252.248z"/>
		<path fill="#FFFFFF" d="M276.276,194.907c0.416,0.382,0.804,0.794,1.161,1.232c0.753,1.299,0.726,2.908-0.072,4.181
			c1.086-0.062,2.096-0.575,2.786-1.417c0.813-0.927,1.529-1.936,2.136-3.011c0.577-0.744,0.806-1.7,0.629-2.624
			c-0.211-0.601-0.708-0.857-1.058-1.31c-0.483-0.883-0.813-1.843-0.974-2.838c-0.62-2.125-2.1-3.686-3.709-3.909l0.223,0.042
			c-0.78,0.463-1.179,1.37-0.993,2.258c0.135,0.875,0.697,1.6,0.641,2.493c-0.081,1.282-1.362,1.884-1.441,3.167
			C275.592,193.817,275.833,194.44,276.276,194.907z"/>
		<path fill="#E6E6E6" d="M268.638,173.114h0.02c0.138-0.125,0.265-0.261,0.381-0.406L268.638,173.114z"/>
		<path fill="#FFFFFF" d="M269.976,179.133c1.092-0.958,1.559-2.445,1.21-3.854c-0.324-1.458-1.47-2.438-2.528-2.169
			c-0.623,0.633-1.528,0.901-2.395,0.708c-0.653-0.168-1.372-0.602-1.938-0.109c-0.324,0.368-0.551,0.811-0.661,1.29l-0.629,1.932
			c-0.1,0.23-0.125,0.486-0.075,0.733c0.083,0.2,0.263,0.343,0.476,0.377l3.777,1.114
			C268.091,179.558,269.104,179.55,269.976,179.133z"/>
		<path fill="#FFFFFF" d="M365.022,262.238l-1.744-2.858c-0.572-1.104-1.354-2.085-2.303-2.889c-0.861-0.724-2.146-0.611-2.87,0.25
			c-0.011,0.013-0.021,0.027-0.032,0.04l0.07,0.545c1.329,1.664,2.729,3.514,3.066,5.984c0.133,0.973,0.088,1.981,0.203,2.959
			c0.025,0.916,0.413,1.785,1.079,2.414c0.916,0.611,1.991-0.29,2.644-1.392c0.583-0.904,0.846-1.979,0.743-3.051
			C365.733,263.523,365.441,262.841,365.022,262.238L365.022,262.238z"/>
		<path fill="#E6E6E6" d="M390.926,225.847l0.505-3.311c0.273-1.212,0.309-2.467,0.102-3.692c-0.194-1.108-1.249-1.849-2.355-1.656
			c-0.018,0.003-0.035,0.006-0.053,0.009l-0.297,0.462c-0.056,2.125-0.177,4.446-1.505,6.552c-0.525,0.831-1.209,1.572-1.75,2.391
			c-0.571,0.717-0.834,1.631-0.729,2.542c0.306,1.063,1.712,1.063,2.92,0.638c1.031-0.317,1.921-0.973,2.534-1.859
			C390.646,227.281,390.861,226.574,390.926,225.847z"/>
		<path fill="#FFFFFF" d="M374.154,263.48c0.283-0.818-0.126-1.756-0.214-2.657c-0.042-1.167,0.267-2.32,0.885-3.31
			c0.617-0.934,1.084-1.959,1.387-3.037c0.126-0.49,0.102-1.009-0.067-1.486c-0.192-0.433-0.66-0.631-0.927-0.287l0.572,0.368
			c-0.773-0.137-1.567-0.099-2.324,0.112c-0.875,0.336-1.532,1.077-1.762,1.987c-0.095,0.698-0.25,1.388-0.462,2.061
			c-0.342,0.701-1.004,0.935-1.416,1.551c-0.576,1.11-0.554,2.436,0.058,3.526c0.522,0.877,1.352,1.53,2.328,1.831
			C372.912,264.386,373.834,264.399,374.154,263.48z"/>
		<path fill="#FFFFFF" d="M390.412,268.385c0.254,0.658,0.593,1.28,1.008,1.849c0.778,0.784,1.837,0.303,2.781,0.112
			c1.744-0.275,3.502,0.429,4.571,1.835c-0.741-3.707-3.238-6.821-6.693-8.354c-2.214-0.767-4.545-1.131-6.885-1.077l-0.4,0.104
			C385.812,265.818,389.01,265.753,390.412,268.385z"/>
		<path fill="#E6E6E6" d="M321.551,274.452l0.006,0.014l0.116-0.224L321.551,274.452z"/>
		<path fill="#FFFFFF" d="M319.086,279.225c-0.538,0.978-1,1.992-1.384,3.04c-0.508,1.696-0.843,3.438-1.004,5.201
			c-0.125,1.003-0.163,2.281,0.465,2.771c0.373,0.247,0.872,0.18,1.165-0.159c0.348-0.369,0.634-0.794,0.844-1.256
			c1.235-2.126,2.193-4.399,2.852-6.768c0.688-2.512,0.524-5.182-0.468-7.591L319.086,279.225z"/>
		<path fill="#E6E6E6" d="M295.29,152.032c0.801,0.782,1.99,1.015,3.027,0.59c1.05-0.459,2.013-1.096,2.847-1.881
			c0.691-0.511,1.276-1.151,1.726-1.883c0.5-0.885,0.627-1.931,0.354-2.91c-0.392-0.944-1.245-1.617-2.253-1.782l-4.192-1.24
			l1.012-0.911c-1.041-0.558-2.191,0.478-2.84,1.76c-0.418,0.838-0.708,1.733-0.863,2.656
			C293.758,148.442,294.099,150.839,295.29,152.032z"/>
		<path fill="#E6E6E6" d="M319.963,143.748c0.817,0.902,2.194,1.014,3.147,0.256c0.799-0.6,1.305-1.512,1.392-2.507
			c0.1-1.099-0.442-2.32-1.222-2.415l0.178-1.029c-1.496-0.266-3.335-0.324-4.137,1.492
			C318.771,140.961,319.016,142.562,319.963,143.748z"/>
		<g transform="translate(263.027 119.867)">
			<path fill="#F37225" d="M49.797,41.074c-5.303-0.597-10.087,3.217-10.685,8.52c-0.599,5.304,2.196,16.823,7.29,21.587
				C48.8,62.046,57.205,56.629,58.317,51.76C59.505,46.556,55.1,41.672,49.797,41.074z"/>
			<circle fill="#FFFFFF" cx="48.036" cy="49.711" r="3.152"/>
			<circle fill="#F37225" cx="44.722" cy="73.66" r="2.064"/>
			<path opacity="0.2" fill="#231F20" enable-background="new    " d="M50.643,47.453c1.507,0.87,2.024,2.797,1.155,4.305
				c-0.869,1.507-2.797,2.024-4.305,1.155c-0.032-0.019-0.064-0.038-0.096-0.058c1.699,0.375,3.381-0.699,3.756-2.398
				c0.292-1.322-0.294-2.683-1.454-3.38C50.032,47.151,50.351,47.278,50.643,47.453z"/>
			<path opacity="0.2" fill="#231F20" enable-background="new    " d="M58.328,51.769c-1.112,4.87-9.516,10.287-11.915,19.421
				c-0.478-0.453-0.921-0.94-1.328-1.458c2.695-8.588,10.576-13.802,11.652-18.505c0.961-4.211-1.741-8.213-5.617-9.903
				C55.81,42.501,59.418,47.001,58.328,51.769z"/>
		</g>
		<g transform="translate(319.704 160.45)">
			<path fill="#F37225" d="M43.304,36.424c-5.304-0.597-10.088,3.217-10.686,8.52c-0.599,5.304,2.195,16.823,7.289,21.586
				c2.398-9.134,10.803-14.551,11.916-19.421C53.01,41.907,48.606,37.022,43.304,36.424z"/>
			<circle fill="#FFFFFF" cx="41.542" cy="45.062" r="3.152"/>
			<circle fill="#F37225" cx="38.228" cy="69.01" r="2.064"/>
			<path opacity="0.2" fill="#231F20" enable-background="new    " d="M44.149,42.804c1.509,0.87,2.024,2.796,1.156,4.304
				c-0.87,1.507-2.797,2.025-4.305,1.155c-0.033-0.019-0.066-0.038-0.097-0.058c1.699,0.375,3.381-0.698,3.756-2.398
				c0.292-1.322-0.294-2.683-1.455-3.38C43.54,42.501,43.857,42.628,44.149,42.804z"/>
			<path opacity="0.2" fill="#231F20" enable-background="new    " d="M51.835,47.119c-1.111,4.87-9.516,10.287-11.915,19.421
				c-0.478-0.453-0.922-0.94-1.328-1.458c2.695-8.589,10.576-13.802,11.651-18.505c0.961-4.211-1.74-8.212-5.615-9.903
				C49.316,37.852,52.925,42.352,51.835,47.119z"/>
		</g>
		<g transform="translate(143.757 140.848)">
			<path fill="#F37225" d="M63.462,38.671c-5.304-0.599-10.087,3.216-10.686,8.519c-0.599,5.304,2.196,16.823,7.29,21.587
				c2.398-9.135,10.802-14.552,11.916-19.421C73.169,44.153,68.765,39.268,63.462,38.671z"/>
			<circle fill="#FFFFFF" cx="61.7" cy="47.308" r="3.152"/>
			<circle fill="#F37225" cx="58.387" cy="71.256" r="2.064"/>
			<path opacity="0.2" fill="#231F20" enable-background="new    " d="M64.308,45.05c1.508,0.869,2.025,2.796,1.155,4.304
				c-0.869,1.507-2.797,2.024-4.305,1.155c-0.032-0.019-0.064-0.038-0.096-0.058c1.699,0.375,3.381-0.699,3.756-2.398
				c0.292-1.322-0.293-2.683-1.454-3.38C63.697,44.747,64.016,44.874,64.308,45.05z"/>
			<path opacity="0.2" fill="#231F20" enable-background="new    " d="M71.993,49.365c-1.111,4.87-9.516,10.287-11.915,19.421
				c-0.478-0.453-0.922-0.94-1.328-1.458c2.695-8.588,10.577-13.802,11.651-18.505c0.961-4.211-1.74-8.213-5.617-9.903
				C69.475,40.097,73.082,44.597,71.993,49.365z"/>
		</g>
	</g>
	<g transform="translate(715.215 209.169)">
		<g transform="translate(274.669 240.745)">
			<g transform="translate(0)">
				<path fill="#F37225" d="M118.884,87.55l-1.428,3.581c0,0-20.783-15.857-36.814-14.511l0,0c-0.814,0.599-1.859,0.79-2.833,0.519
					l-5.97-1.479c-1.221-0.283-2.183-1.223-2.493-2.438l0,0c0,0-12.101-9.997-28.502-8.444l-6.11,0.257l25.855-42.832l70.569,11.376
					L118.884,87.55z"/>
			</g>
		</g>
		<g transform="translate(320.496 267.202)">
			<g transform="translate(0 0)">
				<path fill="#EBEBEB" d="M78.509,57.196l-2.379,6.513c0,0-19.469-19.113-46.644-14.904l16.286-29.631
					C45.773,19.173,78.932,49.931,78.509,57.196z"/>
			</g>
		</g>
		<g transform="translate(320.176 240.816)">
			<g transform="translate(0.32 0.118)">
				<path fill="#FFFFFF" d="M98.512,37.335c0,0-22.059-26.875-51.26-9.038L29.487,75.072c0,0,32.508-13.041,51.149,10.662
					L98.512,37.335z"/>
			</g>
			<path fill="#263238" d="M98.832,37.449c0,0-0.098,0.3-0.307,0.886l-0.934,2.582c-0.83,2.273-2.042,5.594-3.586,9.818
				c-3.117,8.483-7.568,20.598-12.919,35.164l-0.088,0.233l-0.156-0.195c-5.397-6.939-13.146-11.666-21.786-13.289
				c-4.711-0.899-9.525-1.111-14.297-0.631c-2.472,0.233-4.925,0.617-7.35,1.152c-2.473,0.525-4.907,1.221-7.287,2.076l-0.259,0.099
				l-0.344,0.131l0.13-0.341c6.463-17.001,12.549-33.002,17.785-46.77l0.018-0.045l0.041-0.026c3.478-2.156,7.246-3.8,11.192-4.88
				c6.748-1.83,13.891-1.591,20.5,0.687c2.614,0.893,5.137,2.037,7.526,3.419c3.357,1.941,6.477,4.271,9.29,6.939
				c0.974,0.924,1.683,1.676,2.144,2.192c0.233,0.258,0.405,0.458,0.518,0.593c0.112,0.137,0.163,0.211,0.163,0.211
				s-0.063-0.064-0.183-0.195c-0.119-0.131-0.301-0.327-0.53-0.578c-0.475-0.505-1.19-1.245-2.174-2.156
				c-2.829-2.636-5.954-4.937-9.311-6.857c-2.389-1.365-4.902-2.494-7.509-3.372c-6.574-2.241-13.668-2.459-20.366-0.626
				c-3.918,1.08-7.66,2.722-11.11,4.87l0.061-0.072c-5.225,13.771-11.298,29.777-17.748,46.783l-0.215-0.21l0.266-0.101
				c2.395-0.863,4.846-1.562,7.333-2.091c2.437-0.534,4.904-0.919,7.389-1.151c4.802-0.481,9.647-0.265,14.388,0.646
				c8.709,1.643,16.516,6.417,21.946,13.422l-0.241,0.038c5.393-14.521,9.876-26.603,13.015-35.063
				c1.578-4.225,2.815-7.543,3.665-9.814c0.426-1.128,0.752-1.993,0.974-2.586C98.698,37.749,98.832,37.449,98.832,37.449z"/>
		</g>
		<g transform="translate(272.785 238.646)">
			<path fill="#F5F5F5" d="M76.922,77.276c0,0-19.602-20.479-41.372-12.751l19.246-41.712l39.554,9.385L76.922,77.276z"/>
			<path fill="#263238" d="M77.038,77.851l-0.342-0.354c-0.195-0.203-19.713-20.244-41.04-12.669l-0.702,0.249l19.669-42.632
				l0.25,0.059l39.901,9.475l-0.127,0.336L77.038,77.851z M45.605,62.488c15.862,0,28.933,12.018,31.2,14.227L93.929,32.42
				l-38.952-9.245L36.144,63.992c3.053-1.001,6.246-1.509,9.459-1.504H45.605z"/>
		</g>
		<g transform="translate(279.202 219.432)">
			<g transform="translate(0.267 0.178)">
				<path fill="#FFFFFF" d="M88.28,49.621c0,0-3.97-18.269-22.064-22.562l-11.688-2.435L34.193,66.225
					c0,0,29.22,6.339,36.361,29.886L88.28,49.621z"/>
			</g>
			<path fill="#263238" d="M88.546,49.799c0,0-0.021,0.073-0.071,0.218l-0.233,0.642c-0.214,0.575-0.525,1.412-0.93,2.5
				l-3.572,9.474L70.95,96.338l-0.148,0.393l-0.123-0.402c-1.021-3.299-2.519-6.431-4.445-9.297
				c-0.476-0.755-1.047-1.455-1.578-2.192c-0.588-0.693-1.137-1.428-1.771-2.096c-1.254-1.391-2.596-2.699-4.021-3.915
				c-6.145-5.081-13.227-8.908-20.843-11.266c-1.198-0.378-2.405-0.728-3.597-1.005l-0.202-0.048l0.089-0.183l20.357-41.59
				l0.048-0.097l0.104,0.021l9.527,1.997c2.896,0.497,5.705,1.4,8.349,2.684c4.269,2.163,7.934,5.347,10.675,9.27
				c1.77,2.494,3.198,5.213,4.252,8.085c0.362,0.99,0.596,1.766,0.737,2.291c0.142,0.526,0.187,0.804,0.187,0.804
				s-0.021-0.065-0.058-0.199c-0.037-0.135-0.098-0.338-0.171-0.593c-0.155-0.521-0.4-1.29-0.776-2.276
				c-1.082-2.847-2.527-5.543-4.302-8.02c-2.744-3.879-6.401-7.024-10.647-9.159c-2.629-1.265-5.424-2.153-8.302-2.639l-9.528-1.974
				l0.154-0.074L34.603,66.468l-0.112-0.231c1.213,0.282,2.42,0.632,3.631,1.014c3.885,1.241,7.648,2.832,11.244,4.758
				c3.463,1.837,6.716,4.043,9.703,6.578c1.435,1.227,2.785,2.545,4.045,3.949c0.644,0.671,1.195,1.416,1.786,2.113
				c0.531,0.742,1.107,1.45,1.589,2.214c1.94,2.892,3.444,6.053,4.468,9.381l-0.271-0.01c5.318-13.874,9.768-25.482,12.89-33.63
				c1.568-4.064,2.804-7.261,3.648-9.459c0.426-1.085,0.751-1.922,0.975-2.494c0.11-0.276,0.195-0.488,0.256-0.642
				C88.515,49.857,88.546,49.799,88.546,49.799z"/>
		</g>
		<g transform="translate(307.361 230.195)">
			<path fill="#E0E0E0" d="M30.992,23.44c-0.016,0.147,1.842,0.457,4.688,1.435c3.663,1.273,7.104,3.116,10.193,5.458
				c2.957,2.249,5.503,4.992,7.526,8.108c1.477,2.333,2.067,3.896,2.232,3.865c0.063-0.011-0.034-0.408-0.273-1.124
				c-0.355-1.029-0.81-2.021-1.357-2.963c-1.918-3.301-4.476-6.184-7.526-8.48c-3.185-2.428-6.781-4.263-10.617-5.414
				c-1.157-0.356-2.343-0.621-3.542-0.793C31.883,23.429,31.435,23.397,30.992,23.44z"/>
		</g>
		<g transform="translate(303.87 235.227)">
			<path fill="#E0E0E0" d="M31.39,22.864c-0.016,0.146,1.842,0.456,4.688,1.433c3.662,1.275,7.102,3.118,10.192,5.46
				c2.957,2.25,5.503,4.993,7.526,8.107c1.479,2.333,2.068,3.897,2.234,3.866c0.063-0.011-0.035-0.408-0.275-1.126
				c-0.354-1.028-0.808-2.02-1.356-2.961c-1.918-3.3-4.477-6.185-7.525-8.482c-3.186-2.427-6.783-4.26-10.619-5.414
				c-1.157-0.354-2.342-0.619-3.541-0.79C32.281,22.853,31.833,22.822,31.39,22.864z"/>
		</g>
		<g transform="translate(301.47 241.184)">
			<path fill="#E0E0E0" d="M31.667,22.181c-0.016,0.147,1.842,0.456,4.688,1.435c3.663,1.273,7.104,3.115,10.193,5.459
				c2.957,2.249,5.503,4.991,7.526,8.107c1.478,2.335,2.067,3.896,2.234,3.866c0.063-0.012-0.036-0.409-0.273-1.125
				c-0.356-1.029-0.81-2.021-1.357-2.962c-1.918-3.301-4.476-6.185-7.526-8.481c-3.186-2.428-6.782-4.262-10.618-5.414
				c-1.156-0.355-2.342-0.62-3.542-0.791C32.559,22.17,32.111,22.138,31.667,22.181z"/>
		</g>
		<g transform="translate(298.215 246.376)">
			<path fill="#E0E0E0" d="M32.038,21.586c-0.015,0.146,1.842,0.456,4.688,1.433c3.663,1.274,7.104,3.116,10.194,5.458
				c2.958,2.25,5.502,4.994,7.526,8.109c1.479,2.333,2.068,3.896,2.234,3.867c0.063-0.012-0.037-0.411-0.275-1.126
				c-0.354-1.029-0.81-2.021-1.355-2.962c-1.918-3.303-4.478-6.185-7.525-8.481c-3.187-2.429-6.784-4.263-10.619-5.415
				c-1.159-0.355-2.343-0.62-3.542-0.792C32.93,21.574,32.484,21.542,32.038,21.586z"/>
		</g>
		<g transform="translate(294.653 251.807)">
			<path fill="#E0E0E0" d="M32.448,20.967c-0.016,0.147,1.842,0.456,4.688,1.435c3.662,1.274,7.103,3.115,10.192,5.459
				c2.957,2.25,5.504,4.993,7.526,8.109c1.478,2.333,2.067,3.895,2.234,3.865c0.063-0.012-0.035-0.409-0.273-1.126
				c-0.354-1.028-0.81-2.021-1.356-2.963c-1.919-3.3-4.478-6.184-7.526-8.48c-3.187-2.428-6.782-4.262-10.618-5.414
				c-1.157-0.356-2.343-0.621-3.542-0.792C33.339,20.956,32.89,20.925,32.448,20.967z"/>
		</g>
		<g transform="translate(290.37 257.792)">
			<g transform="translate(0 0)">
				<path fill="#E0E0E0" d="M32.938,20.275c-0.016,0.149,2.003,0.479,5.084,1.59c1.798,0.651,3.551,1.415,5.25,2.288
					c2.047,1.081,4.021,2.294,5.913,3.631c1.835,1.337,3.57,2.805,5.194,4.391c1.274,1.275,2.439,2.651,3.487,4.116
					c1.753,2.479,2.372,4.187,2.545,4.151c0.064-0.012-0.056-0.442-0.33-1.221c-0.162-0.48-0.368-0.946-0.614-1.392
					c-0.292-0.621-0.631-1.218-1.015-1.788c-0.995-1.549-2.139-2.997-3.416-4.322c-1.633-1.659-3.398-3.182-5.28-4.55
					c-1.938-1.373-3.976-2.6-6.098-3.668c-1.758-0.864-3.581-1.596-5.45-2.183c-0.715-0.237-1.44-0.437-2.176-0.597
					c-0.548-0.145-1.104-0.254-1.664-0.327C33.901,20.284,33.418,20.243,32.938,20.275z"/>
			</g>
		</g>
		<g transform="translate(288.304 263.032)">
			<g transform="translate(0 0)">
				<path fill="#E0E0E0" d="M33.174,19.674c-0.017,0.152,2.017,0.476,5.088,1.637c1.791,0.683,3.532,1.486,5.214,2.404
					c2.021,1.137,3.963,2.404,5.815,3.798c1.793,1.394,3.487,2.911,5.071,4.538c1.241,1.31,2.38,2.713,3.406,4.196
					c1.717,2.507,2.346,4.22,2.518,4.186c0.064-0.011-0.055-0.442-0.33-1.225c-0.161-0.481-0.363-0.95-0.604-1.399
					c-0.288-0.623-0.619-1.228-0.993-1.804c-0.97-1.563-2.082-3.033-3.323-4.392c-1.587-1.698-3.309-3.267-5.146-4.691
					c-1.901-1.433-3.909-2.717-6.004-3.844c-1.744-0.911-3.558-1.681-5.425-2.302c-0.714-0.252-1.441-0.46-2.18-0.626
					c-0.548-0.153-1.106-0.268-1.671-0.344C34.142,19.691,33.658,19.646,33.174,19.674z"/>
			</g>
		</g>
		<g transform="translate(334.171 285.641)">
			<g transform="translate(0 0)">
				<path fill="#E0E0E0" d="M27.922,20.818c0.102,0.127,1.746-0.832,4.776-1.727c4.083-1.18,8.366-1.505,12.581-0.955
					c4.346,0.593,8.537,2.014,12.347,4.189c2.912,1.667,4.45,3.038,4.562,2.938c0.041-0.034-0.295-0.412-0.992-1.032
					c-1.009-0.877-2.087-1.672-3.221-2.378c-3.849-2.396-8.163-3.944-12.657-4.541c-4.342-0.588-8.763-0.169-12.92,1.222
					c-1.178,0.4-2.315,0.908-3.398,1.519C28.252,20.482,27.884,20.769,27.922,20.818z"/>
			</g>
		</g>
		<g transform="translate(336.944 278.92)">
			<path fill="#E0E0E0" d="M27.604,21.582c0.101,0.129,1.749-0.831,4.776-1.727c4.083-1.179,8.367-1.504,12.581-0.953
				c4.347,0.591,8.538,2.013,12.347,4.188c2.913,1.667,4.45,3.039,4.563,2.938c0.041-0.033-0.298-0.411-0.993-1.031
				c-1.008-0.879-2.086-1.673-3.221-2.379c-3.849-2.396-8.165-3.943-12.662-4.541c-4.343-0.588-8.762-0.169-12.917,1.224
				c-1.179,0.399-2.317,0.907-3.4,1.518C27.938,21.25,27.569,21.538,27.604,21.582z"/>
		</g>
		<g transform="translate(339.716 272.201)">
			<g transform="translate(0 0)">
				<path fill="#E0E0E0" d="M27.286,22.352c0.103,0.129,1.749-0.831,4.778-1.727c4.083-1.18,8.365-1.503,12.58-0.952
					c4.346,0.59,8.538,2.012,12.346,4.188c2.912,1.667,4.451,3.039,4.562,2.938c0.043-0.033-0.295-0.411-0.992-1.031
					c-1.009-0.877-2.084-1.673-3.22-2.377c-3.848-2.396-8.163-3.945-12.656-4.541c-4.344-0.588-8.765-0.17-12.92,1.222
					c-1.178,0.399-2.315,0.907-3.4,1.519C27.619,22.021,27.25,22.308,27.286,22.352z"/>
			</g>
		</g>
		<g transform="translate(342.489 265.48)">
			<path fill="#E0E0E0" d="M26.969,23.123c0.102,0.128,1.748-0.83,4.777-1.727c4.084-1.18,8.366-1.503,12.581-0.953
				c4.345,0.591,8.537,2.013,12.348,4.188c2.91,1.667,4.448,3.039,4.562,2.938c0.041-0.035-0.298-0.412-0.994-1.033
				c-1.009-0.877-2.087-1.672-3.221-2.377c-3.848-2.398-8.163-3.945-12.656-4.542c-4.343-0.587-8.764-0.17-12.921,1.223
				c-1.178,0.399-2.315,0.908-3.398,1.519C27.301,22.788,26.935,23.078,26.969,23.123z"/>
		</g>
		<g transform="translate(345.263 258.76)">
			<g transform="translate(0 0)">
				<path fill="#E0E0E0" d="M26.651,23.893c0.103,0.128,1.747-0.831,4.777-1.728c4.082-1.179,8.367-1.503,12.581-0.952
					c4.346,0.59,8.538,2.012,12.346,4.188c2.91,1.667,4.45,3.038,4.563,2.938c0.041-0.034-0.298-0.412-0.993-1.033
					c-1.008-0.877-2.086-1.672-3.22-2.377c-3.85-2.396-8.166-3.945-12.663-4.542c-4.342-0.588-8.763-0.169-12.918,1.223
					c-1.178,0.398-2.315,0.907-3.399,1.519C26.982,23.561,26.612,23.848,26.651,23.893z"/>
			</g>
		</g>
		<g transform="translate(348.034 252.041)">
			<path fill="#E0E0E0" d="M26.335,24.663c0.103,0.128,1.747-0.832,4.776-1.728c4.083-1.179,8.366-1.503,12.581-0.953
				c4.346,0.592,8.538,2.014,12.346,4.188c2.912,1.668,4.451,3.041,4.563,2.938c0.04-0.033-0.297-0.412-0.994-1.031
				c-1.009-0.88-2.084-1.675-3.218-2.383c-3.85-2.396-8.167-3.944-12.663-4.54c-4.342-0.588-8.763-0.17-12.918,1.221
				c-1.178,0.4-2.315,0.908-3.398,1.52C26.664,24.331,26.297,24.618,26.335,24.663z"/>
		</g>
	</g>
	<g transform="translate(975.496 192.821)">
		<g transform="translate(89.138 291.165)">
			<g transform="translate(0)">
				<path fill="#F37225" d="M26.173,18.301l5.549,11.086l24.56,20.644l6.038-7.863l-24.115-20.13L26.173,18.301z"/>
			</g>
			<g transform="translate(0 0)" opacity="0.7">
				<path fill="#FFFFFF" d="M38.205,22.038c0,0.404-0.326,0.732-0.733,0.732c-0.063,0-0.126-0.009-0.188-0.024
					c0.717,0.984,0.502,2.364-0.481,3.083c-0.556,0.405-1.268,0.529-1.927,0.335c0.369,1.373-0.445,2.784-1.818,3.151
					c-0.452,0.121-0.928,0.116-1.375-0.013l-5.509-11.001L38.205,22.038z"/>
			</g>
			<g transform="translate(0 0)">
				<path fill="#F37225" d="M28.405,22.759c0,0,2.34,0.4,2.697-2.927l-4.931-1.531L28.405,22.759z"/>
			</g>
		</g>
		<g transform="translate(95.358 300.044)" opacity="0.3">
			<path d="M28.655,17.284l24.184,20.019l-2.777,3.85l-24.56-20.646l-0.042-0.083c0.366,0.108,0.752,0.129,1.129,0.063
				c0.495-0.089,0.957-0.313,1.328-0.651c0.453-0.417,0.74-0.981,0.81-1.595C28.763,17.92,28.738,17.595,28.655,17.284z"/>
		</g>
		<g transform="translate(101.685 295.385)" opacity="0.3">
			<path d="M24.737,18.526l24.261,20.433l0.774-1.01L25.658,17.818c-0.019,0.401-0.341,0.723-0.742,0.741
				C24.854,18.554,24.794,18.544,24.737,18.526z"/>
		</g>
		<g transform="translate(93.872 296.745)">
			<path fill="#FFFFFF" d="M27.469,20.027c0.025,0.037,0.065,0.064,0.11,0.076c0.135,0.03,0.271-0.045,0.313-0.178
				c0.055-0.203,0.045-0.419-0.028-0.619c-0.038-0.126-0.116-0.235-0.219-0.315c-0.114-0.091-0.269-0.117-0.405-0.066
				c-0.146,0.069-0.254,0.199-0.297,0.354c-0.057,0.168-0.086,0.343-0.089,0.521c-0.025,0.393,0.029,0.787,0.165,1.156
				c0.063,0.2,0.212,0.361,0.404,0.443c0.209,0.058,0.434,0.007,0.596-0.135c0.32-0.339,0.49-0.795,0.468-1.261
				c0.022-0.918-0.471-1.772-1.277-2.213c-0.179-0.083-0.389-0.078-0.563,0.015c-0.164,0.094-0.303,0.226-0.404,0.384
				c-0.187,0.287-0.33,0.603-0.424,0.933c-0.141,0.48-0.182,0.982-0.122,1.479c0.021,0.179,0.05,0.311,0.07,0.401
				c0.021,0.092,0.029,0.139,0.029,0.139c-0.059-0.173-0.102-0.354-0.126-0.536c-0.069-0.5-0.035-1.009,0.103-1.496
				c0.093-0.336,0.234-0.657,0.425-0.951c0.105-0.168,0.251-0.308,0.422-0.406c0.193-0.103,0.422-0.109,0.621-0.019
				c0.831,0.449,1.342,1.326,1.319,2.271c-0.003,0.244-0.041,0.485-0.116,0.716c-0.065,0.23-0.196,0.438-0.375,0.597
				c-0.182,0.156-0.431,0.21-0.661,0.144c-0.211-0.088-0.371-0.262-0.442-0.478c-0.138-0.378-0.193-0.781-0.164-1.184
				c0.007-0.183,0.04-0.363,0.098-0.537c0.053-0.167,0.172-0.306,0.331-0.38c0.152-0.054,0.321-0.024,0.447,0.078
				c0.111,0.086,0.192,0.204,0.232,0.339c0.072,0.208,0.078,0.434,0.016,0.646c-0.051,0.138-0.198,0.215-0.341,0.178
				C27.532,20.113,27.487,20.077,27.469,20.027z"/>
		</g>
		<g transform="translate(95.165 293.753)">
			<path fill="#FFFFFF" d="M27.175,18.005c0.009,0-0.054,0.13-0.102,0.38c-0.06,0.351-0.049,0.711,0.034,1.058
				c0.125,0.514,0.312,1.01,0.554,1.479c0.306,0.578,0.515,1.203,0.619,1.848c0.065,0.657-0.063,1.319-0.37,1.905
				c-0.426,0.8-1.165,1.388-2.043,1.623c-0.126,0.036-0.255,0.061-0.388,0.072c0.033-0.011,0.066-0.019,0.1-0.024
				c0.064-0.015,0.162-0.037,0.281-0.074c0.343-0.102,0.664-0.256,0.958-0.458c0.437-0.3,0.791-0.7,1.036-1.169
				c0.297-0.574,0.421-1.224,0.354-1.867c-0.104-0.639-0.31-1.256-0.61-1.828c-0.242-0.476-0.424-0.979-0.545-1.498
				c-0.078-0.353-0.081-0.719-0.012-1.072C27.069,18.248,27.114,18.123,27.175,18.005z"/>
		</g>
		<g transform="translate(99.447 294.555)">
			<path fill="#FFFFFF" d="M25.673,17.913c-0.214,0.126-0.376,0.326-0.454,0.563c-0.144,0.584-0.195,1.188-0.152,1.789
				c0.021,0.603,0.095,1.203,0.226,1.793c0.05,0.227,0.098,0.407,0.129,0.53c0.023,0.064,0.038,0.13,0.047,0.197
				c-0.03-0.062-0.054-0.125-0.073-0.19c-0.04-0.123-0.095-0.303-0.15-0.53c-0.224-0.917-0.3-1.863-0.224-2.804
				c0.012-0.275,0.063-0.547,0.153-0.807c0.062-0.178,0.173-0.333,0.32-0.451C25.549,17.963,25.609,17.933,25.673,17.913z"/>
		</g>
		<g transform="translate(100.997 296.761)">
			<path fill="#FFFFFF" d="M25.181,20.017c-0.072-0.116-0.131-0.24-0.176-0.368c-0.136-0.308-0.199-0.64-0.188-0.974
				c0.01-0.343,0.173-0.662,0.442-0.873c0.084-0.06,0.175-0.104,0.273-0.13c0.036-0.013,0.074-0.017,0.11-0.013
				c-0.126,0.041-0.245,0.103-0.354,0.182c-0.247,0.21-0.395,0.515-0.404,0.839c-0.009,0.324,0.047,0.646,0.164,0.948
				C25.1,19.755,25.146,19.884,25.181,20.017z"/>
		</g>
		<g transform="translate(93.263 293.039)">
			<path fill="#FFFFFF" d="M27.472,18.087c0.011,0.016,0.021,0.034,0.025,0.053c0.017,0.035,0.038,0.088,0.063,0.157
				c0.035,0.085,0.052,0.176,0.052,0.266c-0.007,0.121-0.043,0.239-0.104,0.345c-0.114,0.239-0.307,0.49-0.49,0.781
				c-0.2,0.316-0.372,0.649-0.514,0.995c-0.251,0.633-0.45,1.285-0.598,1.948l-0.143,0.604c-0.015,0.074-0.034,0.148-0.061,0.22
				c0.006-0.076,0.016-0.15,0.033-0.225c0.027-0.146,0.067-0.354,0.12-0.61c0.136-0.672,0.331-1.33,0.583-1.967
				c0.145-0.351,0.318-0.687,0.523-1.004c0.189-0.293,0.385-0.537,0.502-0.769c0.113-0.173,0.141-0.388,0.071-0.581
				C27.51,18.23,27.489,18.159,27.472,18.087z"/>
		</g>
	</g>
	<g transform="translate(678.656 122.571)">
		<path fill="#263238" d="M273.163,174.663l-0.657-31.433l-10.714,5.505l-4.538,18.906L273.163,174.663z"/>
		<path fill="#263238" d="M260.905,189.022l-11.211,5.625l-4.227-0.491l7.382-5.818l7.267-1.458L260.905,189.022z"/>
		<path fill="#E0E0E0" d="M184.673,170.111L142.6,202.783l47.343-30.481L184.673,170.111z"/>
		<path fill="#263238" d="M210.953,178.934c-0.639,0.32-61.646,24.594-61.646,24.594l-6.707-0.745l46.313-32.899L210.953,178.934z"
			/>
		<path fill="#455A64" d="M193.139,184.397l5.112,2.084c0.916,0.373,1.96-0.067,2.333-0.982l0.028-0.071
			c0.374-0.914-0.064-1.958-0.979-2.331c-0.001,0-0.002-0.001-0.003-0.001l-5.112-2.083c-0.915-0.373-1.959,0.066-2.332,0.981
			l-0.029,0.073C191.786,182.981,192.224,184.024,193.139,184.397z"/>
		<path fill="#455A64" d="M163.949,198.312l5.112,2.085c0.915,0.373,1.959-0.066,2.332-0.981l0.03-0.072
			c0.373-0.916-0.067-1.959-0.981-2.333l-5.113-2.085c-0.915-0.372-1.959,0.068-2.333,0.982l-0.028,0.072
			c-0.374,0.915,0.064,1.958,0.979,2.332C163.947,198.312,163.948,198.312,163.949,198.312z"/>
		<path fill="#F37225" d="M172.149,174.002c0,0,18.358,2.531,15.791,12.16c-2.568,9.629-20.683-0.513-20.683-0.513
			s-2.682-1.541-1.655-6.677C166.629,173.836,172.149,174.002,172.149,174.002z"/>
		<path fill="#263238" d="M167.15,178.655c0.32-1.23,1.001-2.335,1.957-3.173c1.001-0.83,2.436-0.885,3.498-0.133l0.509,0.323
			c1.342,1.444,1.748,3.526,1.046,5.369c0.063-0.194,0.125-0.389,0.188-0.583c-0.37,1.973-1.47,3.732-3.083,4.929
			c-0.417,0.345-0.923,0.567-1.459,0.641c-0.685,0.011-1.344-0.266-1.816-0.763c-0.828-0.848-1.314-1.971-1.367-3.155
			C166.577,180.934,166.755,179.763,167.15,178.655z"/>
		<path fill="#FFFFFF" d="M282.822,178.947c0,0,7.495,7.496-6.765,9.325c-14.26,1.828-38.941,0.913-66.729-8.589
			c-27.789-9.503-52.527-22.843-56.853-26.33c-3.216-2.591-8.366-7.021-6.523-13.37c1.013-3.278,3.518-5.882,6.753-7.022
			c6.114-2.333,12.795-2.745,19.149-1.178C184.282,135.072,282.822,178.947,282.822,178.947z"/>
		<path fill="#263238" d="M282.822,178.947c0,0-0.259-0.097-0.748-0.306l-2.171-0.939l-8.34-3.647l-30.673-13.407
			c-12.962-5.629-28.401-12.328-45.638-19.538c-4.315-1.785-8.736-3.621-13.281-5.412c-2.264-0.929-4.587-1.755-6.916-2.645
			c-1.183-0.372-2.36-0.797-3.563-1.13c-1.217-0.304-2.453-0.528-3.7-0.671c-5.127-0.54-10.31,0.136-15.127,1.974
			c-2.45,0.916-4.488,2.683-5.741,4.979c-1.265,2.331-1.457,5.097-0.523,7.579c1.069,2.429,2.714,4.56,4.794,6.208
			c2.011,1.699,4.189,3.187,6.503,4.442c4.542,2.62,9.14,4.991,13.702,7.229c9.128,4.466,18.133,8.364,26.839,11.741
			c8.216,3.258,16.623,6.015,25.173,8.254c7.459,1.914,15.039,3.321,22.688,4.211c6.308,0.761,12.66,1.1,19.012,1.013
			c2.804-0.021,5.41-0.192,7.803-0.38c2.183-0.149,4.351-0.464,6.485-0.943c1.883-0.5,3.576-1.196,4.545-2.366
			c0.449-0.529,0.722-1.184,0.783-1.875c0.028-0.575-0.061-1.15-0.259-1.69c-0.272-0.738-0.656-1.429-1.138-2.05
			c-0.321-0.425-0.506-0.627-0.506-0.627c0.197,0.185,0.378,0.385,0.543,0.598c0.502,0.615,0.904,1.306,1.189,2.047
			c0.21,0.552,0.307,1.14,0.285,1.73c-0.055,0.718-0.331,1.4-0.791,1.954c-0.995,1.219-2.71,1.933-4.604,2.452
			c-2.142,0.496-4.319,0.826-6.512,0.989c-2.397,0.203-5.009,0.386-7.818,0.418c-6.365,0.115-12.731-0.202-19.054-0.946
			c-7.667-0.869-15.266-2.259-22.744-4.162c-8.571-2.226-16.999-4.974-25.235-8.228c-8.721-3.372-17.739-7.261-26.883-11.732
			c-4.57-2.238-9.177-4.61-13.735-7.238c-2.338-1.269-4.541-2.774-6.573-4.491c-2.138-1.696-3.829-3.891-4.924-6.392
			c-0.979-2.607-0.78-5.51,0.547-7.958c1.305-2.395,3.43-4.238,5.984-5.193c4.886-1.862,10.142-2.546,15.343-1.994
			c1.266,0.149,2.522,0.38,3.759,0.692c1.22,0.342,2.407,0.769,3.603,1.146c2.333,0.892,4.665,1.725,6.927,2.656
			c4.551,1.798,8.972,3.64,13.287,5.43c17.232,7.234,32.657,13.963,45.604,19.632l30.616,13.538l8.304,3.728l2.155,0.981
			C282.581,178.824,282.822,178.947,282.822,178.947z"/>
		<path fill="#263238" d="M259.441,171.071v2.93l-20.152-8.684l3.099-1.682L259.441,171.071z"/>
		<path fill="#FFFFFF" d="M257.872,169.43v4.992l-1.836-0.797v-5.111L257.872,169.43z"/>
		<path fill="#FFFFFF" d="M253.999,167.311v4.991l-1.836-0.797v-5.111L253.999,167.311z"/>
		<path fill="#FFFFFF" d="M250.126,165.828v4.991l-1.836-0.797v-5.111L250.126,165.828z"/>
		<path fill="#FFFFFF" d="M242.504,162.755v4.991l-1.836-0.796v-5.111L242.504,162.755z"/>
		<path fill="#263238" d="M320.985,120.85l-86.376,47.016l-19.43-9.32l95.44-38.523L320.985,120.85z"/>
		<path fill="#FFFFFF" d="M218.831,150.902l91.789-30.88l-95.44,38.523"/>
		<path fill="#263238" d="M215.179,158.544c0,0,0.156-0.079,0.468-0.215l1.396-0.587l5.382-2.219l19.822-8.08l65.465-26.496
			l2.822-1.14l0.16,0.433l-65.04,21.807l-19.624,6.526l-5.332,1.748l-1.388,0.443c-0.313,0.098-0.478,0.137-0.478,0.137
			s0.154-0.068,0.463-0.177l1.375-0.486l5.305-1.831l19.577-6.663l64.996-21.939l0.161,0.431c-0.893,0.36-1.86,0.75-2.824,1.14
			c-25.576,10.293-48.732,19.615-65.514,26.369c-8.38,3.35-15.167,6.062-19.878,7.944l-5.412,2.139l-1.417,0.545
			C215.347,158.493,215.179,158.544,215.179,158.544z"/>
		<path fill="#455A64" d="M275.434,143.183l4.442,3.276c0.795,0.586,1.916,0.418,2.503-0.377l0.045-0.063
			c0.586-0.795,0.417-1.916-0.377-2.502l-4.442-3.276c-0.795-0.587-1.915-0.419-2.502,0.376c0,0,0,0-0.001,0.001l-0.045,0.062
			C274.47,141.475,274.639,142.596,275.434,143.183L275.434,143.183z"/>
		<path fill="#263238" d="M311.143,165.844c-0.295,0.196-27.461,14.173-27.461,14.173l-5.933-3.324l26.025-11.245L311.143,165.844z"
			/>
		<path fill="#FFFFFF" d="M303.278,165.45h-1.867l-26.852,9.829l3.188,1.413L303.278,165.45z"/>
		<path fill="#263238" d="M215.749,152.129l-2.523,1.907l-40.36-17.245l0.459-2.843L215.749,152.129z"/>
		<path fill="#FFFFFF" d="M213.507,149.871v4.991l-1.837-0.797v-5.111L213.507,149.871z"/>
		<path fill="#FFFFFF" d="M209.388,148.004v4.991l-1.836-0.797v-5.113L209.388,148.004z"/>
		<path fill="#FFFFFF" d="M205.268,146.137v4.991l-1.836-0.796v-5.112L205.268,146.137z"/>
		<path fill="#FFFFFF" d="M201.148,144.266v4.992l-1.836-0.797v-5.11L201.148,144.266z"/>
		<path fill="#FFFFFF" d="M197.03,142.403v4.992l-1.837-0.797v-5.113L197.03,142.403z"/>
		<path fill="#FFFFFF" d="M192.911,140.536v4.99l-1.836-0.796v-5.112L192.911,140.536z"/>
		<path fill="#FFFFFF" d="M188.791,139.002v4.99l-1.836-0.797v-5.112L188.791,139.002z"/>
		<path fill="#FFFFFF" d="M246.39,164.286v4.991l-1.838-0.796v-5.111L246.39,164.286z"/>
		<path fill="#FFFFFF" d="M184.673,137.246v4.991l-1.836-0.797v-5.113L184.673,137.246z"/>
		<path fill="#FFFFFF" d="M180.5,135.599v4.991l-1.837-0.797v-5.114L180.5,135.599z"/>
		<path fill="#FFFFFF" d="M176.325,133.951v4.992l-1.836-0.797v-5.112L176.325,133.951z"/>
		<path fill="#263238" d="M163.792,134.325c0,0-6.906-2.037-11.092-1.367c1.262-0.562,2.589-0.965,3.951-1.199
			c0,0,2.602-0.939,7.783,0.442L163.792,134.325z"/>
		<path fill="#E0E0E0" d="M245.472,194.158l5.146-5.661l2.464,0.191L245.472,194.158z"/>
		<path fill="#263238" d="M245.314,194.294l0.14-0.155l5.154-5.667h0.01l2.524,0.196l-0.049,0.035L245.314,194.294z
			 M250.627,188.516l-4.997,5.497l7.389-5.313L250.627,188.516z"/>
		<path fill="#455A64" d="M257.374,152.827l4.442,3.276c0.796,0.586,1.916,0.417,2.503-0.378l0.045-0.062
			c0.586-0.796,0.417-1.916-0.377-2.502l-4.442-3.276c-0.795-0.587-1.916-0.418-2.502,0.377l-0.045,0.063
			C256.411,151.12,256.579,152.241,257.374,152.827z"/>
		<path fill="#455A64" d="M294.561,132.912l4.442,3.276c0.795,0.586,1.915,0.417,2.502-0.377l0.046-0.063
			c0.587-0.794,0.418-1.915-0.375-2.501c-0.001,0-0.001-0.001-0.002-0.001l-4.443-3.276c-0.794-0.586-1.914-0.418-2.5,0.376
			c0,0,0,0-0.001,0.001l-0.046,0.063C293.599,131.206,293.767,132.325,294.561,132.912z"/>
		<path fill="#F37225" d="M241.364,141.223c0,0,17.67,5.585,13.519,14.644s-20.301-3.984-20.301-3.984s-2.385-1.97-0.508-6.858
			C235.951,140.136,241.364,141.223,241.364,141.223z"/>
		<path fill="#263238" d="M235.654,144.969c0.521-1.158,1.379-2.133,2.462-2.797c1.127-0.65,2.55-0.462,3.471,0.458l0.448,0.403
			c1.081,1.65,1.129,3.771,0.127,5.469c0.095-0.177,0.189-0.362,0.283-0.544c-0.697,1.882-2.078,3.432-3.868,4.339
			c-0.47,0.271-1.005,0.403-1.547,0.385c-0.677-0.105-1.279-0.489-1.662-1.057c-0.672-0.976-0.963-2.165-0.816-3.34
			C234.704,147.118,235.078,145.993,235.654,144.969z"/>
		<g opacity="0.1">
			<path d="M158.608,145.152c2.494-0.7,4.73,0.612,6.792,1.854c32.435,19.548,68.737,35.156,106.567,35.068
				c0.867-0.006,1.65,0.514,1.98,1.315l0,0c0.446,1.091-0.077,2.338-1.168,2.785c-0.229,0.094-0.472,0.146-0.717,0.157
				c-40.72,1.716-80.799-10.569-113.563-34.809c-1.217-0.908-2.528-1.993-2.329-3.69C156.37,146.531,157.33,145.475,158.608,145.152
				z"/>
		</g>
	</g>
	<g transform="matrix(0.998, 0.07, -0.07, 0.998, 669.949, 178.991)">
		<g transform="translate(128.919 226.488)">
			<path fill="#2E4992" d="M139.094,92.709l-43.428,22.129L60.138,45.113l43.428-22.129c3.767-1.919,8.378-0.421,10.298,3.346
				c0,0.001,0,0.001,0.001,0.001l28.575,56.081C144.36,86.178,142.862,90.789,139.094,92.709z"/>
			<g transform="translate(38.898 38.753)">
				<path fill="#FFFFFF" d="M75.857,39.431c-3.179,2.84-7.655,3.718-11.671,2.285c-3.087-1.078-5.635-3.315-7.102-6.238
					c-3.112-6.11-0.863-13.513,5.009-16.505c2.853-1.453,6.179-1.666,9.195-0.59c6.391,2.274,9.891,9.143,7.976,15.652
					C78.646,36.112,77.467,37.98,75.857,39.431z M60.209,21.297c-3.81,3.536-4.777,9.189-2.36,13.79
					c1.367,2.725,3.741,4.812,6.619,5.818c5.605,2.004,11.773-0.915,13.778-6.52c0.071-0.198,0.135-0.399,0.195-0.6
					c0.877-2.921,0.584-6.067-0.817-8.775l0,0c-1.369-2.725-3.743-4.811-6.621-5.818c-2.796-0.997-5.877-0.8-8.522,0.547
					C61.659,20.158,60.895,20.681,60.209,21.297L60.209,21.297z"/>
				<g transform="translate(1.465 7.29)">
					<g transform="translate(0 0)">
						
							<rect x="54.444" y="22.095" transform="matrix(0.891 -0.454 0.454 0.891 -3.0268 32.4444)" fill="#FFFFFF" width="23.213" height="0.86"/>
					</g>
				</g>
				<g transform="translate(6.716 1.821)">
					<g transform="translate(0 0)">
						
							<rect x="60.309" y="16.388" transform="matrix(0.8914 -0.4532 0.4532 0.8914 -6.2656 30.6096)" fill="#FFFFFF" width="0.859" height="23.981"/>
					</g>
				</g>
				<g transform="translate(7.239 1.389)">
					<path fill="#FFFFFF" d="M66.008,39.611l-0.809-0.288c1.114-2.788,1.648-5.772,1.567-8.772
						c-0.254-3.203-1.638-6.211-3.905-8.488c-2.185-2.055-5.28-2.922-8.008-3.683l0.231-0.828c2.824,0.788,6.027,1.682,8.364,3.886
						c2.438,2.418,3.92,5.635,4.175,9.06C67.692,33.612,67.144,36.71,66.008,39.611z"/>
				</g>
				<g transform="translate(4.168 2.021)">
					<path fill="#FFFFFF" d="M68.632,39.281c-3.077-0.559-5.979-1.833-8.474-3.719c-2.62-2.219-4.352-5.311-4.877-8.704
						c-0.405-3.178,0.874-6.617,1.901-9.386l0.805,0.299c-0.995,2.677-2.232,6.008-1.853,8.976c0.51,3.171,2.13,6.057,4.57,8.145
						c2.396,1.798,5.177,3.011,8.125,3.543L68.632,39.281z"/>
				</g>
				<g transform="translate(0.384 1.528)">
					<path fill="#FFFFFF" d="M70.132,20.614c-4.011,3.59-9.054,5.818-14.409,6.367l-0.088-0.855
						c6.335-0.648,12.173-3.728,16.285-8.589l0.658,0.553C71.823,18.99,71.006,19.833,70.132,20.614z"/>
				</g>
				<g transform="translate(6.868 15.736)">
					<path fill="#FFFFFF" d="M72.426,16.759c-7.012,0.694-13.162,3.624-16.872,8.045l-0.659-0.554
						c3.853-4.588,10.212-7.63,17.443-8.345L72.426,16.759z"/>
				</g>
			</g>
			<g transform="translate(4.399 24.179)">
				<path fill="#263238" d="M95.041,88.864c-0.054,0.029-8.026-15.505-17.801-34.691c-9.777-19.185-17.659-34.767-17.605-34.797
					c0.054-0.029,8.025,15.502,17.804,34.694C87.218,73.262,95.096,88.833,95.041,88.864z"/>
			</g>
			<g transform="translate(51.203 72.136)">
				<path fill="#FFFFFF" d="M81.231,13.883c0.028,0.055-5.985,3.174-13.428,6.967c-7.442,3.793-13.502,6.825-13.531,6.77
					c-0.028-0.056,5.983-3.176,13.43-6.97C75.147,16.856,81.202,13.831,81.231,13.883z"/>
			</g>
			<g transform="translate(56.771 76.939)">
				<path fill="#FFFFFF" d="M73.64,13.33c0.028,0.057-4.428,2.382-9.951,5.196c-5.525,2.815-10.026,5.053-10.055,4.998
					c-0.029-0.054,4.427-2.381,9.952-5.197C69.112,15.512,73.611,13.28,73.64,13.33z"/>
			</g>
			<g transform="translate(22.544 16.717)">
				<g transform="translate(0 14.272)">
					<path fill="#FFFFFF" d="M61.245,19.451c0.402,0.714,0.148,1.62-0.566,2.022c-0.068,0.038-0.138,0.07-0.211,0.097l-0.578,0.294
						l0.494,0.974l-0.938,0.478l-1.891-3.712l1.517-0.77c0.683-0.455,1.606-0.269,2.06,0.414
						C61.175,19.312,61.213,19.379,61.245,19.451z M60.297,19.934c-0.117-0.292-0.448-0.432-0.74-0.316
						c-0.043,0.018-0.084,0.04-0.122,0.067l-0.52,0.266l0.554,1.086l0.52-0.266c0.299-0.097,0.461-0.419,0.363-0.717
						C60.339,20.012,60.32,19.972,60.297,19.934L60.297,19.934z"/>
				</g>
				<g transform="translate(4.91 12.372)">
					<path fill="#FFFFFF" d="M59.673,21.688l-1.402,0.713l0.107,0.854l-0.957,0.488l-0.426-4.455l0.924-0.473l3.359,2.963
						l-0.974,0.498L59.673,21.688z M59.004,21.053l-1.032-0.974l0.177,1.404L59.004,21.053z"/>
				</g>
				<g transform="translate(8.197 10.207)">
					<path fill="#FFFFFF" d="M57.855,23.591l-0.089-0.93c0.437,0.067,0.885,0,1.282-0.194c0.388-0.198,0.477-0.396,0.385-0.578
						c-0.299-0.587-1.967,0.802-2.67-0.575c-0.338-0.662-0.129-1.449,0.857-1.949c0.42-0.22,0.894-0.321,1.368-0.289l0.108,0.925
						c-0.364-0.036-0.732,0.027-1.063,0.183c-0.393,0.2-0.46,0.421-0.366,0.605c0.29,0.568,1.955-0.814,2.651,0.553
						c0.331,0.647,0.127,1.444-0.859,1.947C58.97,23.555,58.409,23.659,57.855,23.591z"/>
				</g>
				<g transform="translate(11.662 8.441)">
					<path fill="#FFFFFF" d="M57.456,23.794l-0.088-0.932c0.437,0.069,0.885,0.002,1.282-0.193c0.388-0.197,0.478-0.396,0.386-0.576
						c-0.3-0.59-1.968,0.801-2.67-0.578c-0.337-0.661-0.13-1.45,0.856-1.947c0.421-0.222,0.895-0.322,1.369-0.291l0.108,0.927
						c-0.364-0.036-0.731,0.027-1.062,0.182c-0.392,0.201-0.46,0.422-0.365,0.607c0.288,0.567,1.955-0.816,2.651,0.551
						c0.329,0.646,0.126,1.443-0.86,1.949C58.571,23.756,58.01,23.861,57.456,23.794z"/>
				</g>
				<g transform="translate(14.845 6.707)">
					<path fill="#FFFFFF" d="M59.544,20.317c0.402,0.715,0.148,1.619-0.566,2.021c-0.067,0.038-0.138,0.07-0.211,0.099l-0.577,0.294
						l0.493,0.974l-0.937,0.478l-1.89-3.71l1.516-0.773c0.683-0.454,1.606-0.27,2.06,0.415
						C59.475,20.18,59.512,20.247,59.544,20.317z M58.597,20.802c-0.118-0.292-0.45-0.433-0.742-0.316
						c-0.043,0.018-0.083,0.039-0.12,0.067l-0.521,0.265l0.553,1.087l0.521-0.267c0.299-0.095,0.462-0.417,0.365-0.715
						C58.639,20.881,58.621,20.839,58.597,20.802z"/>
				</g>
				<g transform="translate(19.368 4.519)">
					<path fill="#FFFFFF" d="M55.602,22.819c-0.473-1.042-0.011-2.269,1.03-2.742c1.042-0.473,2.269-0.012,2.742,1.029
						c0.458,1.01,0.041,2.2-0.947,2.702c-1.007,0.524-2.248,0.132-2.771-0.876C55.637,22.895,55.619,22.856,55.602,22.819z
						 M58.341,21.422c-0.336-0.452-0.974-0.546-1.427-0.211c-0.452,0.336-0.547,0.976-0.211,1.427c0.297,0.401,0.84,0.527,1.284,0.3
						c0.51-0.289,0.689-0.937,0.399-1.448c-0.013-0.025-0.029-0.049-0.045-0.072L58.341,21.422z"/>
				</g>
				<g transform="translate(23.323 2.387)">
					<path fill="#FFFFFF" d="M57.722,22.949l-0.511,0.261l0.502,0.985l-0.938,0.478l-1.89-3.71l1.517-0.773
						c0.683-0.453,1.604-0.269,2.059,0.415c0.043,0.064,0.082,0.133,0.114,0.205c0.277,0.469,0.257,1.055-0.052,1.505l1.31,0.801
						l-1.005,0.512L57.722,22.949z M56.764,21.048l-0.521,0.266l0.554,1.086l0.52-0.266c0.31-0.134,0.451-0.494,0.316-0.805
						c-0.135-0.309-0.495-0.45-0.804-0.314C56.808,21.023,56.785,21.036,56.764,21.048z"/>
				</g>
				<g transform="translate(26.879)">
					<path fill="#FFFFFF" d="M55.92,22.061l-1.018,0.519l-0.425-0.832l2.971-1.514l0.424,0.832l-1.014,0.515l1.466,2.879
						l-0.938,0.479L55.92,22.061z"/>
				</g>
			</g>
			<g transform="translate(65.873 39.811)">
				<g transform="translate(5.636 3.773)">
					<path fill="#FFFFFF" d="M54.736,17.155c0.428,1.899-0.765,3.784-2.665,4.212c-0.029,0.007-0.058,0.013-0.087,0.018
						C51.984,21.386,51.404,17.964,54.736,17.155z"/>
				</g>
				<g transform="translate(5.597 9.611)">
					<path fill="#FFFFFF" d="M55.485,16.514c-0.221,1.689-1.769,2.88-3.459,2.659c-0.025-0.003-0.05-0.006-0.076-0.01
						C52.24,17.483,53.791,16.321,55.485,16.514z"/>
				</g>
				<g transform="translate(3.907 14.403)">
					<path fill="#FFFFFF" d="M56.539,16.232c-0.715,1.671-2.649,2.443-4.319,1.728c-0.026-0.012-0.051-0.022-0.076-0.034
						C52.144,17.926,53.577,15.021,56.539,16.232z"/>
				</g>
				<g transform="translate(2.265 8.075)">
					<path fill="#FFFFFF" d="M52.332,16.662c1.704-0.022,3.103,1.342,3.124,3.045c0,0.025,0.001,0.05,0,0.076
						C53.752,19.734,52.382,18.365,52.332,16.662z"/>
				</g>
				<g transform="translate(3.145 11.917)">
					<path fill="#FFFFFF" d="M52.537,16.221c1.144,0.601,1.585,2.013,0.986,3.159c-0.017,0.033-0.036,0.065-0.055,0.098
						C52.332,18.819,51.921,17.381,52.537,16.221z"/>
				</g>
				<g transform="translate(4.043 0.596)">
					<path fill="#FFFFFF" d="M53.425,17.518c0.839,1.295,0.47,3.024-0.825,3.863c-0.02,0.014-0.04,0.026-0.06,0.038
						C51.754,20.091,52.143,18.378,53.425,17.518z"/>
				</g>
				<path fill="#FFFFFF" d="M52.59,17.588c1.501-0.064,2.771,1.1,2.836,2.603c0.002,0.026,0.002,0.055,0.003,0.084
					C53.919,20.277,52.671,19.097,52.59,17.588z"/>
				<g transform="translate(0.579 4.411)">
					<path fill="#FFFFFF" d="M52.525,17.264c1.679-0.606,3.53,0.264,4.136,1.942c0.009,0.024,0.018,0.048,0.026,0.074
						C56.687,19.279,53.646,20.201,52.525,17.264z"/>
				</g>
				<g transform="translate(2.162 2.669)">
					<path fill="#FFFFFF" d="M52.344,31.365c0.009-0.01,0.019-0.019,0.028-0.027l0.089-0.081c0.078-0.069,0.196-0.168,0.336-0.308
						c0.402-0.39,0.763-0.82,1.081-1.28c0.468-0.685,0.844-1.429,1.117-2.212c0.162-0.463,0.291-0.936,0.386-1.418
						c0.022-0.124,0.043-0.253,0.065-0.379l0.033-0.192c0.009-0.065,0.014-0.129,0.022-0.195c0.013-0.131,0.029-0.266,0.043-0.394
						c0.014-0.129,0.012-0.267,0.018-0.402c0.001-0.068,0.006-0.136,0.009-0.202l0-0.203c0-0.133,0-0.264-0.006-0.396
						c-0.005-0.133-0.019-0.265-0.028-0.391c-0.005-0.065-0.009-0.13-0.014-0.193l-0.024-0.191
						c-0.017-0.127-0.032-0.251-0.049-0.375c-0.016-0.124-0.045-0.244-0.068-0.366c-0.01-0.058-0.022-0.121-0.034-0.177
						c-0.011-0.057-0.027-0.118-0.04-0.177c-0.029-0.116-0.057-0.232-0.088-0.346c-0.213-0.8-0.521-1.574-0.919-2.302
						c-0.27-0.489-0.578-0.958-0.923-1.399c-0.125-0.155-0.224-0.265-0.292-0.355l-0.076-0.088l-0.025-0.031
						c0.009,0.008,0.018,0.017,0.027,0.029l0.079,0.088c0.068,0.079,0.171,0.193,0.297,0.347c0.871,1.092,1.504,2.353,1.859,3.703
						c0.029,0.114,0.056,0.229,0.088,0.346c0.014,0.058,0.031,0.117,0.042,0.177c0.01,0.06,0.023,0.12,0.034,0.177
						c0.023,0.122,0.044,0.245,0.068,0.367c0.024,0.124,0.033,0.25,0.048,0.376l0.025,0.192c0.006,0.063,0.01,0.129,0.015,0.194
						c0.01,0.13,0.018,0.261,0.028,0.391c0.01,0.131,0.004,0.266,0.006,0.399l0,0.202c0,0.068-0.007,0.135-0.009,0.203
						c-0.007,0.136-0.013,0.27-0.02,0.404c-0.006,0.133-0.028,0.266-0.042,0.396c-0.007,0.067-0.012,0.131-0.022,0.195l-0.033,0.193
						c-0.023,0.129-0.043,0.255-0.066,0.382c-0.097,0.481-0.228,0.953-0.391,1.417c-0.275,0.784-0.654,1.529-1.126,2.213
						c-0.32,0.46-0.685,0.889-1.09,1.275c-0.141,0.138-0.261,0.237-0.341,0.305c-0.04,0.033-0.07,0.058-0.089,0.078L52.344,31.365z"
						/>
				</g>
			</g>
			<g transform="translate(31.569 55.89)">
				<g transform="translate(0.642 8.283)">
					<path fill="#FFFFFF" d="M56.448,15.718c1.284,1.463,3.511,1.609,4.974,0.325c0.022-0.02,0.044-0.039,0.066-0.059
						C61.488,15.984,59.06,13.5,56.448,15.718z"/>
				</g>
				<g transform="translate(4.918 11.582)">
					<path fill="#FFFFFF" d="M55.958,16.048c1.497,0.812,3.37,0.257,4.183-1.241c0.012-0.021,0.024-0.044,0.036-0.066
						C58.646,13.991,56.796,14.565,55.958,16.048z"/>
				</g>
				<g transform="translate(9.462 12.903)">
					<path fill="#FFFFFF" d="M55.438,16.865c1.772,0.402,3.535-0.709,3.937-2.483c0.006-0.026,0.012-0.053,0.017-0.078
						C59.392,14.303,56.2,13.755,55.438,16.865z"/>
				</g>
				<g transform="translate(7.252 6.576)">
					<path fill="#FFFFFF" d="M56.314,14.991c-1.019,1.364-0.738,3.298,0.627,4.316c0.02,0.015,0.041,0.03,0.062,0.046
						C57.966,17.946,57.663,16.032,56.314,14.991z"/>
				</g>
				<g transform="translate(10.321 9.828)">
					<path fill="#FFFFFF" d="M55.359,14.619c-0.187,1.278,0.696,2.464,1.974,2.651c0.037,0.006,0.074,0.01,0.112,0.015
						C57.58,15.979,56.658,14.801,55.359,14.619z"/>
				</g>
				<g transform="translate(0 4.569)">
					<path fill="#FFFFFF" d="M56.522,15.425c0.553,1.439,2.169,2.158,3.609,1.605c0.022-0.008,0.045-0.016,0.067-0.026
						C59.584,15.586,57.972,14.893,56.522,15.425z"/>
				</g>
				<g transform="translate(2.087)">
					<path fill="#FFFFFF" d="M56.875,15.746c-0.935,1.177-0.738,2.889,0.438,3.824c0.022,0.018,0.043,0.034,0.066,0.05
						C58.268,18.4,58.046,16.698,56.875,15.746z"/>
				</g>
				<g transform="translate(4.533 3.18)">
					<path fill="#FFFFFF" d="M57.433,15.38c-1.477,1.002-1.864,3.01-0.863,4.489c0.015,0.02,0.031,0.045,0.046,0.065
						C56.616,19.935,59.151,18.014,57.433,15.38z"/>
				</g>
				<g transform="translate(3.216 3.902)">
					<path fill="#FFFFFF" d="M67.926,23.056l-0.04,0.007l-0.116,0.025c-0.102,0.023-0.251,0.06-0.448,0.088
						c-0.551,0.096-1.11,0.138-1.67,0.122c-0.83-0.023-1.652-0.157-2.447-0.398c-0.47-0.139-0.928-0.313-1.373-0.517l-0.346-0.17
						l-0.177-0.088c-0.058-0.03-0.114-0.063-0.171-0.098l-0.344-0.198l-0.337-0.22l-0.168-0.111l-0.161-0.121
						c-0.108-0.079-0.214-0.158-0.319-0.237c-0.104-0.081-0.201-0.17-0.299-0.253c-0.05-0.042-0.101-0.082-0.149-0.126
						c-0.049-0.043-0.093-0.088-0.139-0.13l-0.276-0.26l-0.255-0.266l-0.126-0.132c-0.042-0.044-0.08-0.089-0.118-0.138l-0.23-0.27
						c-0.526-0.644-0.971-1.349-1.328-2.1c-0.237-0.506-0.434-1.03-0.589-1.568c-0.051-0.192-0.089-0.341-0.113-0.442
						c-0.012-0.051-0.022-0.089-0.03-0.114c-0.008-0.027-0.01-0.04-0.01-0.04c0.002,0.014,0.004,0.027,0.008,0.041
						c0.005,0.026,0.014,0.066,0.026,0.116c0.025,0.101,0.056,0.252,0.105,0.442c0.373,1.347,1.021,2.601,1.903,3.684l0.229,0.273
						c0.04,0.045,0.077,0.092,0.119,0.136l0.126,0.133l0.256,0.271l0.277,0.26l0.139,0.132c0.048,0.042,0.098,0.083,0.149,0.125
						c0.099,0.09,0.199,0.169,0.3,0.253c0.101,0.085,0.212,0.16,0.32,0.24l0.161,0.121l0.169,0.112l0.337,0.221l0.347,0.201
						c0.056,0.03,0.113,0.065,0.171,0.095l0.177,0.089l0.346,0.17c0.447,0.205,0.908,0.379,1.378,0.519
						c0.798,0.239,1.623,0.371,2.457,0.391c0.561,0.013,1.122-0.032,1.673-0.134c0.197-0.032,0.345-0.07,0.443-0.095l0.115-0.03
						L67.926,23.056z"/>
				</g>
			</g>
		</g>
	</g>
</g>
</svg>
