<svg version="1.1" id="Capa_1" xmlns="http://www.w3.org/2000/svg" xmlns:xlink="http://www.w3.org/1999/xlink" x="0px" y="0px" viewBox="0 0 512 512" style="enable-background:new 0 0 512 512;" xml:space="preserve" width="300" height="300" xmlns:svgjs="http://svgjs.dev/svgjs"><g width="100%" height="100%" transform="matrix(1,0,0,1,0,0)"><g>
	<g>
		<g>
			<path style="stroke-linejoin: round; stroke-miterlimit: 10;" d="M88.75,425.482h21.821&#10;&#9;&#9;&#9;&#9;c22.634,0,40.982-18.348,40.982-40.982c0-16.785,13.607-30.392,30.393-30.392c21.016,0,38.054-17.037,38.054-38.054v0&#10;&#9;&#9;&#9;&#9;C220,295.037,202.963,278,181.946,278" fill="none" fill-opacity="1" stroke="#000000" stroke-opacity="1" data-original-stroke-color="#000000ff" stroke-width="22" data-original-stroke-width="22"/>
			<path style="stroke-linejoin: round; stroke-miterlimit: 10;" d="M471.907,334H353.743&#10;&#9;&#9;&#9;&#9;c-25.629,0-46.406,20.777-46.406,46.406c0,19.007-15.408,34.415-34.415,34.415c-23.798,0-43.09,19.292-43.09,43.09&#10;&#9;&#9;&#9;&#9;c0,22.068,16.593,40.25,37.982,42.778" fill="none" fill-opacity="1" stroke="#000000" stroke-opacity="1" data-original-stroke-color="#000000ff" stroke-width="22" data-original-stroke-width="22"/>
			<path style="stroke-linejoin: round; stroke-miterlimit: 10;" d="M479,278&#10;&#9;&#9;&#9;&#9;c0,123.16-99.84,223-223,223S33,401.159,33,278H479z" fill="none" fill-opacity="1" stroke="#000000" stroke-opacity="1" data-original-stroke-color="#000000ff" stroke-width="22" data-original-stroke-width="22"/>
		</g>
		<g>
			
				<circle id="XMLID_260_" style="stroke-linecap: round; stroke-linejoin: round; stroke-miterlimit: 10;" cx="397" cy="174" r="104" fill="none" fill-opacity="1" stroke="#000000" stroke-opacity="1" data-original-stroke-color="#000000ff" stroke-width="22" data-original-stroke-width="22"/>
			<g>
				<polyline style="stroke-linejoin: round; stroke-miterlimit: 10;" points="63.368,278 &#10;&#9;&#9;&#9;&#9;&#9;63.368,166 203.368,166 &#9;&#9;&#9;&#9;" fill="none" fill-opacity="1" stroke="#000000" stroke-opacity="1" data-original-stroke-color="#000000ff" stroke-width="22" data-original-stroke-width="22"/>
				
					<line style="stroke-linejoin: round; stroke-miterlimit: 10;" x1="203.368" y1="222" x2="63.368" y2="222" fill="none" fill-opacity="1" stroke="#000000" stroke-opacity="1" data-original-stroke-color="#000000ff" stroke-width="22" data-original-stroke-width="22"/>
			</g>
			<g>
				<polyline style="stroke-linejoin: round; stroke-miterlimit: 10;" points="315.022,110 &#10;&#9;&#9;&#9;&#9;&#9;203.368,110 203.368,278 &#9;&#9;&#9;&#9;" fill="none" fill-opacity="1" stroke="#000000" stroke-opacity="1" data-original-stroke-color="#000000ff" stroke-width="22" data-original-stroke-width="22"/>
				
					<line style="stroke-linejoin: round; stroke-miterlimit: 10;" x1="303.436" y1="222" x2="203.368" y2="222" fill="none" fill-opacity="1" stroke="#000000" stroke-opacity="1" data-original-stroke-color="#000000ff" stroke-width="22" data-original-stroke-width="22"/>
				
					<line style="stroke-linejoin: round; stroke-miterlimit: 10;" x1="203.368" y1="166" x2="293" y2="166" fill="none" fill-opacity="1" stroke="#000000" stroke-opacity="1" data-original-stroke-color="#000000ff" stroke-width="22" data-original-stroke-width="22"/>
			</g>
		</g>
	</g>
	<g>
		<g>
			<path style="stroke-linecap: round; stroke-linejoin: round; stroke-miterlimit: 10;" d="&#10;&#9;&#9;&#9;&#9;M416.396,131.691c-4.651-2.571-15.478-7.255-27.665-3.584c-14.92,4.495-18.626,24.91-8.487,32.862&#10;&#9;&#9;&#9;&#9;c5.822,4.566,14.582,8.321,26.388,12.494c26.424,9.34,16.656,46.604-10.223,46.783c-10.489,0.07-15.393-0.596-24.607-6.624" fill="none" fill-opacity="1" stroke="#338bcc" stroke-opacity="1" data-original-stroke-color="#33ccccff" stroke-width="22" data-original-stroke-width="22"/>
			
				<line style="stroke-linecap: round; stroke-linejoin: round; stroke-miterlimit: 10;" x1="396.41" y1="221.978" x2="396.41" y2="233.849" fill="none" fill-opacity="1" stroke="#338bcc" stroke-opacity="1" data-original-stroke-color="#33ccccff" stroke-width="22" data-original-stroke-width="22"/>
			
				<line style="stroke-linecap: round; stroke-linejoin: round; stroke-miterlimit: 10;" x1="396.41" y1="114.151" x2="396.41" y2="125.617" fill="none" fill-opacity="1" stroke="#338bcc" stroke-opacity="1" data-original-stroke-color="#33ccccff" stroke-width="22" data-original-stroke-width="22"/>
		</g>
		<g>
			
				<polyline style="stroke-linecap: round; stroke-linejoin: round; stroke-miterlimit: 10;" points="&#10;&#9;&#9;&#9;&#9;11,143.73 109.259,45.471 155.768,91.98 234.955,12.793 &#9;&#9;&#9;" fill="none" fill-opacity="1" stroke="#338bcc" stroke-opacity="1" data-original-stroke-color="#33ccccff" stroke-width="22" data-original-stroke-width="22"/>
			
				<polyline style="stroke-linecap: round; stroke-linejoin: round; stroke-miterlimit: 10;" points="&#10;&#9;&#9;&#9;&#9;236.748,48.636 236.748,11 199.112,11 &#9;&#9;&#9;" fill="none" fill-opacity="1" stroke="#338bcc" stroke-opacity="1" data-original-stroke-color="#33ccccff" stroke-width="22" data-original-stroke-width="22"/>
		</g>
	</g>
</g><g>
</g><g>
</g><g>
</g><g>
</g><g>
</g><g>
</g><g>
</g><g>
</g><g>
</g><g>
</g><g>
</g><g>
</g><g>
</g><g>
</g><g>
</g></g></svg>