<svg id="Layer_2" viewBox="0 0 64 64" xmlns="http://www.w3.org/2000/svg" data-name="Layer 2"><path d="m9.87 20.55 2.93 5.8c.5.99 1.51 1.61 2.62 1.61.08 0 .17 0 .25-.01 1.2-.1 2.2-.92 2.55-2.07l5.87-19.26c.47-1.55-.4-3.19-1.95-3.66s-3.19.41-3.66 1.95l-3.74 12.27-.45-.89c-.5-.99-1.51-1.61-2.62-1.61h-3.68c-1.62 0-2.93 1.32-2.93 2.93s1.32 2.93 2.93 2.93h1.88zm-3.83-2.93c0-1.07.87-1.95 1.95-1.95h3.68c.74 0 1.41.41 1.74 1.07l1 1.98c.09.18.27.29.48.27.2-.02.37-.15.43-.35l4.1-13.45c.31-1.03 1.41-1.61 2.43-1.3 1.03.31 1.61 1.41 1.3 2.43l-5.87 19.26c-.23.77-.9 1.31-1.7 1.37-.78.07-1.55-.35-1.91-1.06l-3.07-6.07c-.08-.17-.25-.27-.44-.27h-2.18c-1.07 0-1.95-.87-1.95-1.95z" fill="#2d404b"/><path d="m57.37 12.33h-8.39v-8.4c0-1.62-1.32-2.93-2.93-2.93s-2.93 1.32-2.93 2.93v8.39h-8.39c-1.62 0-2.93 1.32-2.93 2.93s1.32 2.93 2.93 2.93h8.39v8.39c0 1.62 1.32 2.93 2.93 2.93s2.93-1.32 2.93-2.93v-8.39h8.39c1.62 0 2.93-1.32 2.93-2.93s-1.32-2.93-2.93-2.93zm0 4.88h-8.89c-.27 0-.49.22-.49.49v8.89c0 1.08-.87 1.95-1.95 1.95s-1.95-.87-1.95-1.95v-8.89c0-.27-.22-.49-.49-.49h-8.89c-1.08 0-1.95-.87-1.95-1.95s.87-1.95 1.95-1.95h8.89c.27 0 .49-.22.49-.49v-8.89c0-1.08.87-1.95 1.95-1.95s1.95.87 1.95 1.95v8.89c0 .27.22.49.49.49h8.89c1.08 0 1.95.87 1.95 1.95s-.87 1.95-1.95 1.95z" fill="#68bafc"/><path d="m60.31 48.74c0-1.62-1.32-2.93-2.93-2.93h-22.66c-1.62 0-2.93 1.32-2.93 2.93s1.32 2.93 2.93 2.93h22.66c1.62 0 2.93-1.32 2.93-2.93zm-27.54 0c0-1.08.87-1.95 1.95-1.95h22.66c1.08 0 1.95.87 1.95 1.95s-.87 1.95-1.95 1.95h-22.66c-1.08 0-1.95-.87-1.95-1.95z" fill="#2d404b"/><path d="m25.58 40.73c0-.78-.31-1.52-.86-2.07-1.14-1.14-3.01-1.14-4.15 0l-5.94 5.94-5.94-5.94c-1.15-1.14-3.01-1.14-4.15 0-.55.55-.86 1.29-.86 2.07s.31 1.52.86 2.07l5.94 5.94-5.94 5.94c-.55.55-.86 1.29-.86 2.07s.31 1.52.86 2.07c1.11 1.11 3.04 1.11 4.15 0l5.94-5.94 5.94 5.94c.55.55 1.29.86 2.07.86s1.52-.3 2.07-.86c.55-.55.86-1.29.86-2.07s-.31-1.52-.86-2.07l-5.94-5.94 5.94-5.94c.55-.55.86-1.29.86-2.07zm-1.56 1.38-6.28 6.28c-.19.19-.19.5 0 .7l6.28 6.28c.37.37.57.86.57 1.38s-.2 1.01-.57 1.38c-.74.74-2.02.74-2.76 0l-6.28-6.28c-.1-.1-.22-.14-.35-.14s-.25.05-.35.14l-6.28 6.28c-.74.74-2.02.74-2.76 0-.37-.37-.57-.86-.57-1.38s.2-1.01.57-1.38l6.28-6.28c.19-.19.19-.5 0-.7l-6.28-6.28c-.37-.37-.57-.86-.57-1.38s.2-1.01.57-1.38c.76-.76 2-.76 2.76 0l6.28 6.28c.18.18.51.18.7 0l6.28-6.28c.76-.76 2-.76 2.76 0 .37.37.57.86.57 1.38s-.2 1.01-.57 1.38z" fill="#68bafc"/><g fill="#2d404b"><path d="m50.21 38.65c0-2.3-1.87-4.17-4.17-4.17s-4.17 1.87-4.17 4.17 1.87 4.17 4.17 4.17 4.17-1.87 4.17-4.17zm-7.36 0c0-1.76 1.43-3.19 3.19-3.19s3.19 1.43 3.19 3.19-1.43 3.19-3.19 3.19-3.19-1.43-3.19-3.19z"/><path d="m41.87 58.83c0 2.3 1.87 4.17 4.17 4.17s4.17-1.87 4.17-4.17-1.87-4.17-4.17-4.17-4.17 1.87-4.17 4.17zm7.36 0c0 1.76-1.43 3.19-3.19 3.19s-3.19-1.43-3.19-3.19 1.43-3.19 3.19-3.19 3.19 1.43 3.19 3.19z"/></g></svg>